<svg width="16" height="16" viewBox="0 0 16 16" fill="none" xmlns="http://www.w3.org/2000/svg">
<path d="M3.33331 5.87184H12.6666V4.20518C12.6666 4.15384 12.6453 4.10684 12.6025 4.06418C12.5598 4.0214 12.5128 4.00001 12.4615 4.00001H3.53848C3.48715 4.00001 3.44015 4.0214 3.39748 4.06418C3.3547 4.10684 3.33331 4.15384 3.33331 4.20518V5.87184ZM3.53848 14.3333C3.2017 14.3333 2.91665 14.2167 2.68331 13.9833C2.44998 13.75 2.33331 13.465 2.33331 13.1282V4.20518C2.33331 3.8684 2.44998 3.58334 2.68331 3.35001C2.91665 3.11668 3.2017 3.00001 3.53848 3.00001H4.46148V2.10251C4.46148 1.9564 4.51042 1.8344 4.60831 1.73651C4.7062 1.63873 4.8282 1.58984 4.97431 1.58984C5.12054 1.58984 5.24254 1.63873 5.34031 1.73651C5.4382 1.8344 5.48715 1.9564 5.48715 2.10251V3.00001H10.5385V2.08984C10.5385 1.94795 10.5863 1.82912 10.682 1.73334C10.7778 1.63768 10.8966 1.58984 11.0385 1.58984C11.1804 1.58984 11.2991 1.63768 11.3948 1.73334C11.4906 1.82912 11.5385 1.94795 11.5385 2.08984V3.00001H12.4615C12.7983 3.00001 13.0833 3.11668 13.3166 3.35001C13.55 3.58334 13.6666 3.8684 13.6666 4.20518V7.34751C13.6666 7.4894 13.6188 7.60818 13.523 7.70384C13.4273 7.79962 13.3085 7.84751 13.1666 7.84751C13.0248 7.84751 12.906 7.79962 12.8103 7.70384C12.7145 7.60818 12.6666 7.4894 12.6666 7.34751V6.87184H3.33331V13.1282C3.33331 13.1795 3.3547 13.2265 3.39748 13.2692C3.44015 13.312 3.48715 13.3333 3.53848 13.3333H7.61665C7.75854 13.3333 7.87737 13.3812 7.97315 13.477C8.06881 13.5727 8.11665 13.6915 8.11665 13.8333C8.11665 13.9752 8.06881 14.094 7.97315 14.1897C7.87737 14.2855 7.75854 14.3333 7.61665 14.3333H3.53848ZM12.1281 15C11.2957 15 10.5876 14.7081 10.0038 14.1243C9.42004 13.5406 9.12815 12.8325 9.12815 12C9.12815 11.1676 9.42004 10.4595 10.0038 9.87568C10.5876 9.2919 11.2957 9.00001 12.1281 9.00001C12.9607 9.00001 13.6688 9.2919 14.2525 9.87568C14.8363 10.4595 15.1281 11.1676 15.1281 12C15.1281 12.8325 14.8363 13.5406 14.2525 14.1243C13.6688 14.7081 12.9607 15 12.1281 15ZM12.4231 11.8795V10.3333C12.4231 10.253 12.394 10.1838 12.3358 10.1257C12.2777 10.0676 12.2085 10.0385 12.1281 10.0385C12.0478 10.0385 11.9786 10.0676 11.9205 10.1257C11.8624 10.1838 11.8333 10.253 11.8333 10.3333V11.8692C11.8333 11.9495 11.8479 12.026 11.877 12.0987C11.906 12.1713 11.9517 12.2389 12.0141 12.3013L13.0308 13.318C13.0889 13.3761 13.1571 13.4062 13.2353 13.4083C13.3134 13.4105 13.3837 13.3803 13.4461 13.318C13.5086 13.2556 13.5398 13.1863 13.5398 13.1103C13.5398 13.0342 13.5086 12.965 13.4461 12.9025L12.4231 11.8795Z" fill="#1D2633" fill-opacity="0.6" style="fill:#1D2633;fill:color(display-p3 0.1137 0.1490 0.2000);fill-opacity:0.6;"/>
</svg>
