<svg width="16" height="16" viewBox="0 0 16 16" fill="none" xmlns="http://www.w3.org/2000/svg">
<path d="M5.3538 6.15635L7.48464 2.66418C7.54697 2.56163 7.62336 2.48852 7.7138 2.44485C7.80414 2.40129 7.89952 2.37952 7.99997 2.37952C8.10041 2.37952 8.1958 2.40129 8.28614 2.44485C8.37658 2.48852 8.45297 2.56163 8.5153 2.66418L10.6461 6.15635C10.7085 6.25679 10.7396 6.36224 10.7396 6.47268C10.7396 6.58324 10.714 6.68424 10.6628 6.77568C10.6115 6.86713 10.541 6.94018 10.4513 6.99485C10.3615 7.04952 10.2568 7.07685 10.1371 7.07685H5.8628C5.74269 7.07685 5.63758 7.04924 5.54747 6.99402C5.45736 6.93879 5.38725 6.86602 5.33714 6.77568C5.28591 6.68557 5.2603 6.58546 5.2603 6.47535C5.2603 6.36524 5.29147 6.25891 5.3538 6.15635ZM11.6666 14.4102C10.9016 14.4102 10.2531 14.1442 9.72114 13.6122C9.18914 13.0802 8.92314 12.4317 8.92314 11.6667C8.92314 10.9017 9.18914 10.2532 9.72114 9.72118C10.2531 9.18918 10.9016 8.92318 11.6666 8.92318C12.4316 8.92318 13.0801 9.18918 13.6121 9.72118C14.1441 10.2532 14.4101 10.9017 14.4101 11.6667C14.4101 12.4317 14.1441 13.0802 13.6121 13.6122C13.0801 14.1442 12.4316 14.4102 11.6666 14.4102ZM2.25647 13.4742V9.85752C2.25647 9.68674 2.31419 9.54385 2.42964 9.42885C2.54519 9.31396 2.68836 9.25652 2.85914 9.25652H6.4758C6.64658 9.25652 6.78947 9.31424 6.90447 9.42968C7.01936 9.54524 7.0768 9.68841 7.0768 9.85918V13.4758C7.0768 13.6466 7.01908 13.7895 6.90364 13.9045C6.78808 14.0194 6.64491 14.0768 6.47414 14.0768H2.85747C2.68669 14.0768 2.5438 14.0191 2.4288 13.9037C2.31391 13.7881 2.25647 13.645 2.25647 13.4742ZM11.6665 13.4103C12.1546 13.4103 12.5672 13.2418 12.9045 12.9047C13.2417 12.5676 13.4103 12.155 13.4103 11.6669C13.4103 11.1787 13.2417 10.7661 12.9046 10.4289C12.5675 10.0916 12.1549 9.92302 11.6668 9.92302C11.1787 9.92302 10.766 10.0916 10.4288 10.4287C10.0916 10.7658 9.92297 11.1784 9.92297 11.6665C9.92297 12.1546 10.0915 12.5673 10.4286 12.9045C10.7657 13.2417 11.1784 13.4103 11.6665 13.4103ZM3.2563 13.077H6.07697V10.2563H3.2563V13.077ZM6.55897 6.07702H9.44097L7.99997 3.75902L6.55897 6.07702Z" fill="#1D2633" fill-opacity="0.6" style="fill:#1D2633;fill:color(display-p3 0.1137 0.1490 0.2000);fill-opacity:0.6;"/>
</svg>
