<svg width="20" height="20" viewBox="0 0 20 20" fill="none" xmlns="http://www.w3.org/2000/svg">
<path d="M4.1825 16.8108C4.00528 16.8108 3.85687 16.751 3.73729 16.6312C3.61757 16.5114 3.55771 16.3629 3.55771 16.1858V15.3525H3.33333C2.75111 15.3525 2.25833 15.1508 1.855 14.7475C1.45167 14.3443 1.25 13.8515 1.25 13.2692V9.10248C1.25 8.48818 1.45965 7.98741 1.87896 7.60019C2.2984 7.21283 2.78319 7.01915 3.33333 7.01915V5.5129C3.33333 4.93054 3.535 4.43776 3.93833 4.03457C4.34167 3.63123 4.83444 3.42957 5.41667 3.42957H14.5833C15.1656 3.42957 15.6583 3.63123 16.0617 4.03457C16.465 4.43776 16.6667 4.93054 16.6667 5.5129V7.01915C17.2382 7.01915 17.7283 7.21686 18.1371 7.61227C18.5457 8.00755 18.75 8.50429 18.75 9.10248V13.2692C18.75 13.8515 18.5483 14.3443 18.145 14.7475C17.7417 15.1508 17.2489 15.3525 16.6667 15.3525H16.4423V16.1858C16.4423 16.3629 16.3851 16.5114 16.2708 16.6312C16.1565 16.751 16.0108 16.8108 15.8335 16.8108C15.6565 16.8108 15.508 16.751 15.3881 16.6312C15.2683 16.5114 15.2083 16.3629 15.2083 16.1858V15.3525H4.80771V16.1858C4.80771 16.3632 4.74778 16.5117 4.62792 16.6314C4.50806 16.751 4.35958 16.8108 4.1825 16.8108ZM3.33333 14.1025H16.6667C16.9028 14.1025 17.1007 14.0226 17.2604 13.8629C17.4201 13.7032 17.5 13.5053 17.5 13.2692V9.10248C17.5 8.86637 17.4201 8.66845 17.2604 8.50873C17.1007 8.34901 16.9028 8.26915 16.6667 8.26915C16.4306 8.26915 16.2326 8.34901 16.0729 8.50873C15.9132 8.66845 15.8333 8.86637 15.8333 9.10248V12.2275H4.16667V9.10248C4.16667 8.86637 4.08681 8.66845 3.92708 8.50873C3.76736 8.34901 3.56944 8.26915 3.33333 8.26915C3.09722 8.26915 2.89931 8.34901 2.73958 8.50873C2.57986 8.66845 2.5 8.86637 2.5 9.10248V13.2692C2.5 13.5053 2.57986 13.7032 2.73958 13.8629C2.89931 14.0226 3.09722 14.1025 3.33333 14.1025ZM5.41667 10.9775H14.5833V9.10248C14.5833 8.76498 14.6597 8.45679 14.8125 8.1779C14.9653 7.89901 15.1667 7.66554 15.4167 7.47748V5.5129C15.4167 5.27679 15.3368 5.07887 15.1771 4.91915C15.0174 4.75943 14.8194 4.67957 14.5833 4.67957H5.41667C5.18056 4.67957 4.98264 4.75943 4.82292 4.91915C4.66319 5.07887 4.58333 5.27679 4.58333 5.5129V7.47748C4.83333 7.66554 5.03472 7.89901 5.1875 8.1779C5.34028 8.45679 5.41667 8.76498 5.41667 9.10248V10.9775Z" fill="#1D2633" fill-opacity="0.4" style="fill:#1D2633;fill:color(display-p3 0.1137 0.1490 0.2000);fill-opacity:0.4;"/>
</svg>
