<svg width="20" height="20" viewBox="0 0 20 20" fill="none" xmlns="http://www.w3.org/2000/svg">
<path d="M16.6875 7.81246L15.8173 6.94225L16.33 6.40871C16.3835 6.35524 16.4102 6.2951 16.4102 6.22829C16.4102 6.16149 16.3835 6.10142 16.33 6.04808L13.9519 3.66996C13.8985 3.61649 13.8385 3.58975 13.7717 3.58975C13.7049 3.58975 13.6447 3.61649 13.5912 3.66996L13.0577 4.18267L12.1667 3.29162L12.7115 2.726C12.9935 2.44392 13.3413 2.30635 13.7548 2.31329C14.1683 2.32024 14.516 2.46475 14.7981 2.74683L17.2531 5.20183C17.5352 5.48392 17.6762 5.82822 17.6762 6.23475C17.6762 6.64128 17.5352 6.98558 17.2531 7.26767L16.6875 7.81246ZM7.28854 17.2323C7.00646 17.5143 6.66215 17.6554 6.25562 17.6554C5.84909 17.6554 5.50479 17.5143 5.22271 17.2323L2.79979 14.8091C2.51229 14.5218 2.36854 14.1668 2.36854 13.7443C2.36854 13.3218 2.51229 12.9668 2.79979 12.6793L3.3125 12.1666L4.20354 13.0577L3.67791 13.5704C3.62444 13.6238 3.59771 13.684 3.59771 13.7508C3.59771 13.8176 3.62444 13.8777 3.67791 13.931L6.06896 16.322C6.12229 16.3755 6.18236 16.4023 6.24916 16.4023C6.31597 16.4023 6.37611 16.3755 6.42958 16.322L6.94229 15.7964L7.83333 16.6875L7.28854 17.2323ZM15.4792 10.8975L16.5465 9.83017C16.5999 9.77669 16.6267 9.71524 16.6267 9.64579C16.6267 9.57635 16.5999 9.51489 16.5465 9.46142L10.5385 3.4535C10.4851 3.40003 10.4236 3.37329 10.3542 3.37329C10.2847 3.37329 10.2233 3.40003 10.1698 3.4535L9.1025 4.52079C9.04916 4.57426 9.0225 4.63433 9.0225 4.701C9.0225 4.76781 9.04916 4.82794 9.1025 4.88142L15.1185 10.8975C15.172 10.9508 15.2322 10.9775 15.299 10.9775C15.3656 10.9775 15.4257 10.9508 15.4792 10.8975ZM9.83021 16.5464L10.8975 15.4662C10.9508 15.4129 10.9775 15.3528 10.9775 15.286C10.9775 15.2192 10.9508 15.1591 10.8975 15.1058L4.89416 9.10246C4.84083 9.04912 4.78076 9.02246 4.71396 9.02246C4.64715 9.02246 4.58708 9.04912 4.53375 9.10246L3.45354 10.1697C3.40007 10.2232 3.37333 10.2847 3.37333 10.3541C3.37333 10.4236 3.40007 10.485 3.45354 10.5385L9.46146 16.5464C9.51493 16.5999 9.57639 16.6266 9.64583 16.6266C9.71528 16.6266 9.77673 16.5999 9.83021 16.5464ZM9.47271 11.9118L11.9248 9.47267L10.5273 8.07517L8.08812 10.5272L9.47271 11.9118ZM10.7131 17.4245C10.4258 17.712 10.07 17.8558 9.64583 17.8558C9.22167 17.8558 8.8659 17.712 8.57854 17.4245L2.57542 11.4214C2.28792 11.1341 2.14417 10.7783 2.14417 10.3541C2.14417 9.92996 2.28792 9.5742 2.57542 9.28683L3.64271 8.21142C3.93007 7.92406 4.285 7.78038 4.7075 7.78038C5.13014 7.78038 5.48514 7.92406 5.7725 8.21142L7.19708 9.63621L9.64916 7.18433L8.22437 5.77246C7.93701 5.4851 7.79333 5.12794 7.79333 4.701C7.79333 4.27419 7.93701 3.91711 8.22437 3.62975L9.29979 2.55454C9.58715 2.26704 9.94208 2.12329 10.3646 2.12329C10.7871 2.12329 11.142 2.26704 11.4294 2.55454L17.4454 8.57058C17.7329 8.85795 17.8767 9.21288 17.8767 9.63538C17.8767 10.0579 17.7329 10.4128 17.4454 10.7002L16.3702 11.7756C16.0828 12.0629 15.7258 12.2066 15.299 12.2066C14.872 12.2066 14.5149 12.0629 14.2275 11.7756L12.8156 10.3508L10.3637 12.8029L11.7885 14.2275C12.0759 14.5148 12.2196 14.8698 12.2196 15.2925C12.2196 15.715 12.0759 16.0699 11.7885 16.3572L10.7131 17.4245Z" fill="#1D2633" fill-opacity="0.4" style="fill:#1D2633;fill:color(display-p3 0.1137 0.1490 0.2000);fill-opacity:0.4;"/>
</svg>
