<svg width="16" height="16" viewBox="0 0 16 16" fill="none" xmlns="http://www.w3.org/2000/svg">
<path d="M8.00002 13.009C9.30424 11.8414 10.3023 10.7215 10.9942 9.64929C11.6861 8.57707 12.032 7.63796 12.032 6.83196C12.032 5.61663 11.6459 4.61752 10.8737 3.83463C10.1015 3.05174 9.14357 2.66029 8.00002 2.66029C6.85646 2.66029 5.89857 3.05174 5.12635 3.83463C4.35413 4.61752 3.96802 5.61663 3.96802 6.83196C3.96802 7.63796 4.31396 8.57707 5.00585 9.64929C5.69774 10.7215 6.69579 11.8414 8.00002 13.009ZM8.00002 13.9601C7.87013 13.9601 7.74024 13.9377 7.61035 13.893C7.48035 13.8481 7.3628 13.7786 7.25768 13.6846C6.65946 13.1333 6.09963 12.5655 5.57818 11.9813C5.05685 11.3972 4.60368 10.8132 4.21868 10.2295C3.83357 9.64568 3.52885 9.06707 3.30452 8.49363C3.08018 7.92007 2.96802 7.36618 2.96802 6.83196C2.96802 5.29351 3.46563 4.04801 4.46085 3.09546C5.45618 2.1429 6.63591 1.66663 8.00002 1.66663C9.36413 1.66663 10.5439 2.1429 11.5392 3.09546C12.5344 4.04801 13.032 5.29351 13.032 6.83196C13.032 7.36618 12.9198 7.91896 12.6955 8.49029C12.4712 9.06174 12.1676 9.6404 11.7847 10.2263C11.4017 10.8122 10.9495 11.3961 10.4282 11.9781C9.90685 12.5602 9.34702 13.1269 8.74868 13.6781C8.64513 13.7721 8.52741 13.8426 8.39552 13.8896C8.26374 13.9366 8.13191 13.9601 8.00002 13.9601ZM8.00118 7.91013C8.33285 7.91013 8.61641 7.79202 8.85185 7.55579C9.08741 7.31957 9.20518 7.03563 9.20518 6.70396C9.20518 6.37229 9.08707 6.08868 8.85085 5.85313C8.61463 5.61768 8.33063 5.49996 7.99885 5.49996C7.66718 5.49996 7.38363 5.61807 7.14818 5.85429C6.91263 6.09052 6.79485 6.37452 6.79485 6.70629C6.79485 7.03796 6.91296 7.32152 7.14918 7.55696C7.38541 7.7924 7.66941 7.91013 8.00118 7.91013Z" fill="#1D2633" fill-opacity="0.6" style="fill:#1D2633;fill:color(display-p3 0.1137 0.1490 0.2000);fill-opacity:0.6;"/>
</svg>
