<svg width="20" height="20" viewBox="0 0 20 20" fill="none" xmlns="http://www.w3.org/2000/svg">
<path d="M4.42321 17.0833C4.00223 17.0833 3.64591 16.9375 3.35425 16.6458C3.06258 16.3541 2.91675 15.9978 2.91675 15.5768V4.42308C2.91675 4.00211 3.06258 3.64579 3.35425 3.35413C3.64591 3.06246 4.00223 2.91663 4.42321 2.91663H9.05446C9.23182 2.91663 9.38036 2.97649 9.50008 3.09621C9.61967 3.21579 9.67946 3.36426 9.67946 3.54163C9.67946 3.71899 9.61967 3.86746 9.50008 3.98704C9.38036 4.10677 9.23182 4.16663 9.05446 4.16663H4.42321C4.35904 4.16663 4.30029 4.19336 4.24696 4.24683C4.19348 4.30017 4.16675 4.35892 4.16675 4.42308V15.5768C4.16675 15.641 4.19348 15.6998 4.24696 15.7531C4.30029 15.8066 4.35904 15.8333 4.42321 15.8333H15.577C15.6411 15.8333 15.6999 15.8066 15.7532 15.7531C15.8067 15.6998 15.8334 15.641 15.8334 15.5768V10.9456C15.8334 10.7682 15.8933 10.6197 16.013 10.5C16.1326 10.3804 16.2811 10.3206 16.4584 10.3206C16.6358 10.3206 16.7842 10.3804 16.9038 10.5C17.0236 10.6197 17.0834 10.7682 17.0834 10.9456V15.5768C17.0834 15.9978 16.9376 16.3541 16.6459 16.6458C16.3542 16.9375 15.9979 17.0833 15.577 17.0833H4.42321ZM15.8334 5.04475L8.53862 12.3398C8.42321 12.455 8.27814 12.5141 8.10342 12.5168C7.92883 12.5195 7.78112 12.4604 7.66029 12.3398C7.5396 12.2189 7.47925 12.0725 7.47925 11.9006C7.47925 11.7286 7.5396 11.5823 7.66029 11.4614L14.9553 4.16663H12.2917C12.1144 4.16663 11.9659 4.10677 11.8463 3.98704C11.7266 3.86746 11.6667 3.71899 11.6667 3.54163C11.6667 3.36426 11.7266 3.21579 11.8463 3.09621C11.9659 2.97649 12.1144 2.91663 12.2917 2.91663H16.3301C16.5449 2.91663 16.7242 2.9885 16.8678 3.13225C17.0115 3.27586 17.0834 3.4551 17.0834 3.66996V7.70829C17.0834 7.88565 17.0236 8.03413 16.9038 8.15371C16.7842 8.27343 16.6358 8.33329 16.4584 8.33329C16.2811 8.33329 16.1326 8.27343 16.013 8.15371C15.8933 8.03413 15.8334 7.88565 15.8334 7.70829V5.04475Z" fill="#1D2633" fill-opacity="0.6" style="fill:#1D2633;fill:color(display-p3 0.1137 0.1490 0.2000);fill-opacity:0.6;"/>
</svg>
