<svg width="24" height="24" viewBox="0 0 24 24" fill="none" xmlns="http://www.w3.org/2000/svg">
<g clip-path="url(#clip0_9053_10433)">
<path d="M11.9988 13.4999C12.7624 13.4999 13.4118 13.2326 13.947 12.6981C14.4823 12.1636 14.75 11.5146 14.75 10.7511C14.75 9.98745 14.4827 9.33803 13.9482 8.80287C13.4137 8.26753 12.7648 7.99987 12.0013 7.99987C11.2376 7.99987 10.5882 8.26712 10.053 8.80162C9.51767 9.33612 9.25 9.9852 9.25 10.7489C9.25 11.5124 9.51725 12.1618 10.0518 12.6971C10.5863 13.2323 11.2353 13.4999 11.9988 13.4999ZM4.30775 19.4999C3.80258 19.4999 3.375 19.3249 3.025 18.9749C2.675 18.6249 2.5 18.1973 2.5 17.6921V6.30762C2.5 5.80245 2.675 5.37487 3.025 5.02487C3.375 4.67487 3.80258 4.49987 4.30775 4.49987H19.6923C20.1974 4.49987 20.625 4.67487 20.975 5.02487C21.325 5.37487 21.5 5.80245 21.5 6.30762V17.6921C21.5 18.1973 21.325 18.6249 20.975 18.9749C20.625 19.3249 20.1974 19.4999 19.6923 19.4999H4.30775ZM6.404 17.9999H17.596C16.846 17.1947 15.9986 16.5768 15.0538 16.1461C14.1089 15.7153 13.091 15.4999 12 15.4999C10.909 15.4999 9.89108 15.7153 8.94625 16.1461C8.00142 16.5768 7.154 17.1947 6.404 17.9999ZM5 22.1921C4.7875 22.1921 4.60942 22.1202 4.46575 21.9764C4.32192 21.8325 4.25 21.6544 4.25 21.4419C4.25 21.2292 4.32192 21.0511 4.46575 20.9076C4.60942 20.764 4.7875 20.6921 5 20.6921H19C19.2125 20.6921 19.3906 20.764 19.5343 20.9079C19.6781 21.0517 19.75 21.2299 19.75 21.4424C19.75 21.655 19.6781 21.8331 19.5343 21.9766C19.3906 22.1203 19.2125 22.1921 19 22.1921H5ZM5 3.30762C4.7875 3.30762 4.60942 3.2357 4.46575 3.09187C4.32192 2.94803 4.25 2.76987 4.25 2.55737C4.25 2.3447 4.32192 2.16662 4.46575 2.02312C4.60942 1.87945 4.7875 1.80762 5 1.80762H19C19.2125 1.80762 19.3906 1.87953 19.5343 2.02337C19.6781 2.1672 19.75 2.34537 19.75 2.55787C19.75 2.77053 19.6781 2.94862 19.5343 3.09212C19.3906 3.23578 19.2125 3.30762 19 3.30762H5Z" fill="#1D2633" fill-opacity="0.8" style="fill:#1D2633;fill:color(display-p3 0.1137 0.1490 0.2000);fill-opacity:0.8;"/>
</g>
<defs>
<clipPath id="clip0_9053_10433">
<rect width="24" height="24" fill="white" style="fill:white;fill-opacity:1;"/>
</clipPath>
</defs>
</svg>
