<svg width="20" height="20" viewBox="0 0 20 20" fill="none" xmlns="http://www.w3.org/2000/svg">
<path d="M4.49998 8.12506C5.00957 8.12506 5.49672 8.21826 5.96144 8.40464C6.42616 8.59117 6.84929 8.86124 7.23082 9.21485L15.0287 16.6667H15.8333C16.0694 16.6667 16.2673 16.5869 16.4271 16.4271C16.5868 16.2674 16.6666 16.0695 16.6666 15.8334C16.6666 15.7223 16.6562 15.6042 16.6354 15.4792C16.6146 15.3542 16.5417 15.2292 16.4167 15.1042L12.6041 11.2917L11.125 6.8334L9.07852 7.33652C8.67894 7.44347 8.31595 7.36895 7.98957 7.11298C7.66318 6.85714 7.49998 6.5252 7.49998 6.11714V3.85423L6.91665 3.56256L3.71623 7.84631C3.68109 7.89214 3.65283 7.93728 3.63144 7.98173C3.61005 8.02603 3.5897 8.07381 3.5704 8.12506H4.49998ZM4.49998 9.37506H3.47748C3.51387 9.50964 3.56595 9.63465 3.63373 9.75006C3.70165 9.86548 3.79061 9.97124 3.90061 10.0674L10.6666 16.2292C10.8194 16.382 10.993 16.4931 11.1875 16.5626C11.3819 16.632 11.5833 16.6667 11.7916 16.6667H13.2131L6.37332 10.1186C6.12123 9.86652 5.83255 9.67957 5.50727 9.55777C5.18186 9.43596 4.84609 9.37506 4.49998 9.37506ZM11.7916 17.9167C11.4285 17.9167 11.0821 17.851 10.7525 17.7196C10.4229 17.5883 10.1197 17.3996 9.8429 17.1538L3.07207 11.008C2.51332 10.4941 2.19977 9.86701 2.13144 9.12673C2.06311 8.38631 2.2538 7.71159 2.70352 7.10256L5.91998 2.81089C6.0972 2.57159 6.33304 2.41326 6.62748 2.33589C6.92179 2.25839 7.20408 2.29284 7.47436 2.43923L8.06561 2.7309C8.28783 2.84631 8.45748 3.00256 8.57457 3.19965C8.69151 3.39673 8.74998 3.61492 8.74998 3.85423V6.1411L10.8125 5.60902C11.1276 5.52471 11.4289 5.56346 11.7162 5.72527C12.0037 5.88708 12.2009 6.12131 12.3077 6.42798L13.6939 10.5994L17.3077 14.2132C17.5427 14.4482 17.7029 14.7014 17.7883 14.9728C17.8739 15.2442 17.9166 15.531 17.9166 15.8334C17.9166 16.4103 17.715 16.9018 17.3117 17.3078C16.9083 17.7137 16.4155 17.9167 15.8333 17.9167H11.7916Z" fill="#1D2633" fill-opacity="0.4" style="fill:#1D2633;fill:color(display-p3 0.1137 0.1490 0.2000);fill-opacity:0.4;"/>
</svg>
