<svg width="24" height="24" viewBox="0 0 24 24" fill="none" xmlns="http://www.w3.org/2000/svg">
<path d="M5.40007 9.75005H2.65207C2.70591 9.52955 2.78216 9.3183 2.88082 9.1163C2.97966 8.91447 3.10082 8.71672 3.24432 8.52305L7.10407 3.37305C7.31674 3.08588 7.59974 2.89588 7.95307 2.80305C8.30624 2.71005 8.64499 2.75138 8.96932 2.92705L9.67882 3.27705C9.94549 3.41555 10.1491 3.60305 10.2896 3.83955C10.4299 4.07605 10.5001 4.33788 10.5001 4.62505V7.3693L12.9751 6.7308C13.3532 6.62963 13.7147 6.67613 14.0596 6.8703C14.4046 7.06447 14.6412 7.34555 14.7693 7.71355L16.4328 12.7193L20.7693 17.0558C21.0513 17.3378 21.2436 17.6416 21.3461 17.9673C21.4487 18.293 21.5001 18.6372 21.5001 19C21.5001 19.559 21.335 20.0514 21.0048 20.477C20.6747 20.9025 20.2526 21.1871 19.7386 21.3308H19.4211L8.67707 11.0578C8.21924 10.6335 7.71149 10.3094 7.15382 10.0855C6.59616 9.86188 6.01157 9.75005 5.40007 9.75005ZM14.1501 21.5C13.7142 21.5 13.2986 21.4212 12.9031 21.2635C12.5076 21.1059 12.1437 20.8795 11.8116 20.5845L3.68657 13.2095C3.38924 12.9455 3.15174 12.644 2.97407 12.3048C2.79657 11.9658 2.67574 11.6142 2.61157 11.25H5.40007C5.81541 11.25 6.21832 11.3231 6.60882 11.4693C6.99916 11.6155 7.34557 11.8398 7.64807 12.1423L17.4116 21.5H14.1501Z" fill="#1D2633" style="fill:#1D2633;fill:color(display-p3 0.1137 0.1490 0.2000);fill-opacity:1;"/>
</svg>
