<svg width="20" height="20" viewBox="0 0 20 20" fill="none" xmlns="http://www.w3.org/2000/svg">
<path d="M13.8621 18.6667C13.6828 18.6667 13.5325 18.6043 13.4111 18.4796C13.2898 18.355 13.2292 18.2044 13.2292 18.0278C13.2292 17.8511 13.2898 17.703 13.4111 17.5834C13.5325 17.4637 13.6828 17.4038 13.8621 17.4038C14.843 17.3985 15.6771 17.0508 16.3646 16.3607C17.0521 15.6704 17.3985 14.8375 17.4038 13.8621C17.4038 13.6837 17.4662 13.5314 17.5909 13.4055C17.7156 13.2793 17.8662 13.2163 18.0428 13.2163C18.2194 13.2163 18.3675 13.2793 18.4871 13.4055C18.6068 13.5314 18.6667 13.6837 18.6667 13.8621C18.6667 15.1977 18.1998 16.3323 17.2661 17.2661C16.3323 18.1998 15.1977 18.6667 13.8621 18.6667ZM1.97087 6.77087C1.79379 6.77087 1.64324 6.71101 1.51921 6.59129C1.39532 6.47143 1.33337 6.32296 1.33337 6.14587C1.33337 4.81046 1.80185 3.67448 2.73879 2.73796C3.67587 1.80157 4.80893 1.33337 6.13796 1.33337C6.31643 1.33337 6.46865 1.3933 6.59462 1.51317C6.72074 1.63303 6.78379 1.7815 6.78379 1.95858C6.78379 2.1358 6.72074 2.28636 6.59462 2.41025C6.46865 2.53428 6.31643 2.59629 6.13796 2.59629C5.15712 2.60157 4.32296 2.94928 3.63546 3.63942C2.94796 4.32969 2.60157 5.16254 2.59629 6.13796C2.59629 6.31726 2.53636 6.46761 2.4165 6.589C2.29664 6.71025 2.1481 6.77087 1.97087 6.77087ZM15.6121 4.08025C15.7414 4.20955 15.8061 4.35587 15.8061 4.51921C15.8061 4.68268 15.7414 4.82907 15.6121 4.95837L10.4648 10.1186C10.3494 10.2425 10.2065 10.3018 10.0361 10.2967C9.86567 10.2916 9.71851 10.2322 9.59462 10.1186C9.46532 9.99469 9.40199 9.84622 9.40462 9.67317C9.4074 9.50011 9.47074 9.35157 9.59462 9.22754L14.734 4.08025C14.8633 3.95094 15.0097 3.88629 15.1732 3.88629C15.3366 3.88629 15.483 3.95094 15.6121 4.08025ZM17.0273 6.66192C17.1565 6.79122 17.2211 6.93969 17.2211 7.10733C17.2211 7.27511 17.1565 7.42365 17.0273 7.55296L12.4632 12.109C12.3477 12.2244 12.2035 12.2834 12.0305 12.2861C11.8574 12.2887 11.7089 12.2297 11.585 12.109C11.461 11.9851 11.3982 11.8366 11.3967 11.6636C11.395 11.4905 11.4562 11.342 11.5802 11.218L16.1363 6.66192C16.2656 6.53261 16.4141 6.46796 16.5817 6.46796C16.7495 6.46796 16.898 6.53261 17.0273 6.66192ZM4.57212 15.4119C3.3831 14.2228 2.7899 12.7954 2.79254 11.1298C2.79518 9.46428 3.39372 8.03428 4.58817 6.83983L6.49692 4.93108C6.649 4.78053 6.82643 4.70525 7.02921 4.70525C7.23199 4.70525 7.40872 4.78053 7.55942 4.93108L8.06087 5.43275C8.1849 5.55664 8.28428 5.68942 8.359 5.83108C8.43386 5.97261 8.49532 6.12296 8.54337 6.28212L11.5946 3.21796C11.7239 3.08879 11.8724 3.02421 12.04 3.02421C12.2078 3.02421 12.3564 3.08879 12.4857 3.21796C12.6148 3.34726 12.6794 3.4958 12.6794 3.66358C12.6794 3.83122 12.6148 3.97969 12.4857 4.109L8.87337 7.72129L7.33504 9.25483L7.73879 9.65879C8.32421 10.2442 8.60837 10.9466 8.59129 11.7661C8.57421 12.5855 8.26865 13.2923 7.67462 13.8863L7.50171 14.0594C7.38629 14.1747 7.24205 14.2337 7.069 14.2365C6.89594 14.2391 6.7474 14.1801 6.62337 14.0594C6.49949 13.934 6.43754 13.7851 6.43754 13.6128C6.43754 13.4404 6.49949 13.2923 6.62337 13.1684L6.78379 13.008C7.1299 12.6618 7.31365 12.25 7.33504 11.7725C7.35643 11.2949 7.194 10.883 6.84775 10.5369L6.09296 9.79483C5.9424 9.64386 5.86712 9.46456 5.86712 9.25692C5.86712 9.04928 5.94164 8.87108 6.09067 8.72233L7.15233 7.68108C7.34567 7.48775 7.44233 7.25511 7.44233 6.98317C7.44233 6.71136 7.34567 6.47872 7.15233 6.28525L7.03212 6.16504L5.46629 7.72275C4.51657 8.67261 4.03768 9.80775 4.02962 11.1282C4.02171 12.4487 4.49261 13.5839 5.44233 14.5338C6.39206 15.4835 7.53337 15.9584 8.86629 15.9584C10.1991 15.9584 11.3403 15.4835 12.29 14.5338L16.9967 9.81421C17.126 9.6849 17.2746 9.62025 17.4423 9.62025C17.6101 9.62025 17.7586 9.6849 17.8877 9.81421C18.0171 9.94351 18.0817 10.092 18.0817 10.2596C18.0817 10.4274 18.0171 10.5759 17.8877 10.7052L13.1609 15.4115C11.966 16.6062 10.5345 17.2036 8.86629 17.2036C7.19796 17.2036 5.76657 16.6064 4.57212 15.4119Z" fill="#1D2633" fill-opacity="0.4" style="fill:#1D2633;fill:color(display-p3 0.1137 0.1490 0.2000);fill-opacity:0.4;"/>
</svg>
