<svg xmlns="http://www.w3.org/2000/svg" width="24" height="24" viewBox="0 0 24 24" fill="none">
  <path d="M20.225 9.15984L14.8 3.73484L15.225 3.30984C15.5185 3.01617 15.8797 2.87192 16.3085 2.87709C16.7373 2.88225 17.0986 3.03159 17.3923 3.32509L20.6653 6.60784C20.9589 6.9015 21.1058 7.25859 21.1058 7.67909C21.1058 8.09959 20.9589 8.45659 20.6653 8.75009L20.225 9.15984ZM8.7365 20.6886C8.44933 20.9758 8.0955 21.1225 7.675 21.1288C7.2545 21.1353 6.90067 20.995 6.6135 20.7078L3.3115 17.4153C3.018 17.1218 2.87125 16.7633 2.87125 16.3396C2.87125 15.9158 3.018 15.5571 3.3115 15.2636L3.75975 14.8153L9.18475 20.2403L8.7365 20.6886ZM12.2078 20.3058C12.0269 20.4867 11.816 20.5771 11.575 20.5771C11.334 20.5771 11.1231 20.4867 10.9423 20.3058L3.69425 13.0578C3.51342 12.877 3.423 12.6661 3.423 12.4251C3.423 12.1841 3.51342 11.9732 3.69425 11.7923L5.148 10.3231C5.32883 10.1424 5.54233 10.0521 5.7885 10.0521C6.03467 10.0521 6.24808 10.1424 6.42875 10.3231L8.148 12.0521L12.0673 8.13284L10.3385 6.41359C10.1577 6.23275 10.0673 6.02184 10.0673 5.78084C10.0673 5.53984 10.1577 5.32892 10.3385 5.14809L11.7923 3.66934C11.9731 3.4885 12.1882 3.39809 12.4375 3.39809C12.6868 3.39809 12.9019 3.4885 13.0828 3.66934L20.3308 10.9173C20.5116 11.0982 20.602 11.3133 20.602 11.5626C20.602 11.8119 20.5116 12.027 20.3308 12.2078L18.852 13.6616C18.6712 13.8424 18.4603 13.9328 18.2193 13.9328C17.9783 13.9328 17.7673 13.8424 17.5865 13.6616L15.8673 11.9328L11.948 15.8521L13.677 17.5713C13.8577 17.752 13.948 17.9654 13.948 18.2116C13.948 18.4578 13.8577 18.6713 13.677 18.8521L12.2078 20.3058Z" fill="#1D2633" style="fill:#1D2633;fill:color(display-p3 0.1137 0.1490 0.2000);fill-opacity:1;"/>
</svg>