<svg width="361" height="81" viewBox="0 0 361 81" fill="none" xmlns="http://www.w3.org/2000/svg">
<path d="M0 26.1C0 17.1392 0 12.6587 1.7439 9.23615C3.27787 6.22556 5.72556 3.77787 8.73615 2.2439C12.1587 0.5 16.6392 0.5 25.6 0.5H335.4C344.361 0.5 348.841 0.5 352.264 2.2439C355.274 3.77787 357.722 6.22556 359.256 9.23615C361 12.6587 361 17.1392 361 26.1V54.9C361 63.8608 361 68.3413 359.256 71.7638C357.722 74.7744 355.274 77.2221 352.264 78.7561C348.841 80.5 344.361 80.5 335.4 80.5H25.6C16.6392 80.5 12.1587 80.5 8.73615 78.7561C5.72556 77.2221 3.27787 74.7744 1.7439 71.7638C0 68.3413 0 63.8608 0 54.9V26.1Z" fill="#929DAD" fill-opacity="0.08" style="fill:#929DAD;fill:color(display-p3 0.5725 0.6157 0.6784);fill-opacity:0.08;"/>
<g clip-path="url(#clip0_9106_4087)">
<path d="M32.6345 50.9C32.4217 50.9 32.2419 50.8256 32.0953 50.677C31.9484 50.5281 31.875 50.3473 31.875 50.1345C31.875 49.9216 31.9484 49.7435 32.0953 49.6C32.2419 49.4563 32.4217 49.3845 32.6345 49.3845C33.8115 49.3781 34.8125 48.9609 35.6375 48.1327C36.4625 47.3044 36.8782 46.305 36.8845 45.1345C36.8845 44.9216 36.9589 44.7393 37.1078 44.5875C37.2564 44.4355 37.4372 44.3595 37.65 44.3595C37.8628 44.3595 38.041 44.4355 38.1845 44.5875C38.3282 44.7393 38.4 44.9216 38.4 45.1345C38.4 46.7371 37.8398 48.0987 36.7193 49.2192C35.5988 50.3397 34.2372 50.9 32.6345 50.9ZM18.3655 36.625C18.1527 36.625 17.9718 36.5532 17.823 36.4097C17.6743 36.2661 17.6 36.0878 17.6 35.875C17.6 34.2725 18.1618 32.9093 19.2855 31.7855C20.4093 30.6618 21.7693 30.1 23.3655 30.1C23.5783 30.1 23.7607 30.1718 23.9125 30.3155C24.0645 30.459 24.1405 30.6371 24.1405 30.85C24.1405 31.0628 24.0645 31.2436 23.9125 31.3922C23.7607 31.5411 23.5783 31.6155 23.3655 31.6155C22.1885 31.6218 21.1875 32.0391 20.3625 32.8672C19.5375 33.6956 19.1218 34.695 19.1155 35.8655C19.1155 36.0783 19.0437 36.2581 18.9 36.4047C18.7565 36.5516 18.5783 36.625 18.3655 36.625ZM21.502 46.9942C20.075 45.5672 19.3631 43.8544 19.3663 41.8557C19.3696 39.8571 20.0879 38.1411 21.5213 36.7077L23.1155 35.098C23.218 34.9955 23.3436 34.9442 23.4923 34.9442C23.6411 34.9442 23.7668 34.9955 23.8693 35.098C24.2949 35.5236 24.5142 36.0375 24.527 36.6395C24.5398 37.2413 24.3366 37.7519 23.9173 38.1712L23.3365 38.7422C23.1558 38.9231 23.0655 39.1381 23.0655 39.3875C23.0655 39.6368 23.1558 39.8519 23.3365 40.0327L23.9385 40.6345C24.4937 41.1896 24.7055 41.7868 24.574 42.426C24.4427 43.065 24.1347 43.6268 23.65 44.1115C23.532 44.2295 23.4714 44.3718 23.4683 44.5385C23.4651 44.7051 23.5257 44.8474 23.65 44.9652C23.768 45.0832 23.9103 45.1422 24.077 45.1422C24.2437 45.1422 24.3859 45.0832 24.5038 44.9652C25.2371 44.2384 25.6679 43.3946 25.7963 42.4337C25.9244 41.4727 25.5847 40.5884 24.777 39.7807L24.3808 39.375L24.8328 38.923C25.1508 38.5923 25.3789 38.2266 25.5173 37.826C25.6558 37.4253 25.7212 37.0121 25.7135 36.5865L29.9288 32.3615C30.0839 32.2065 30.2622 32.129 30.4635 32.129C30.6647 32.129 30.8428 32.2065 30.998 32.3615C31.1532 32.5166 31.2308 32.6949 31.2308 32.8962C31.2308 33.0974 31.1532 33.2756 30.998 33.4307L26.5153 37.9135L27.8443 39.2422L33.6963 33.3962C33.8513 33.2411 34.0268 33.1635 34.223 33.1635C34.4192 33.1635 34.5948 33.2411 34.75 33.3962C34.9052 33.5514 34.9828 33.727 34.9828 33.923C34.9828 34.1191 34.9052 34.2948 34.75 34.45L28.9038 40.302L30.2328 41.6307L35.3788 36.4942C35.5339 36.3391 35.7122 36.2615 35.9135 36.2615C36.1147 36.2615 36.2928 36.3391 36.448 36.4942C36.6032 36.6494 36.6808 36.8276 36.6808 37.0287C36.6808 37.2301 36.6032 37.4083 36.448 37.5635L31.302 42.7L32.6403 44.0385L36.4115 40.277C36.5667 40.1218 36.7448 40.0442 36.946 40.0442C37.1473 40.0442 37.3256 40.1218 37.4808 40.277C37.6359 40.4321 37.7135 40.6103 37.7135 40.8115C37.7135 41.0128 37.6359 41.1911 37.4808 41.3462L31.8078 46.9942C30.3744 48.4276 28.6568 49.1442 26.6548 49.1442C24.6529 49.1442 22.9353 48.4276 21.502 46.9942Z" fill="#1D2633" style="fill:#1D2633;fill:color(display-p3 0.1137 0.1490 0.2000);fill-opacity:1;"/>
</g>
<path d="M65.36 34.772V35.924H52.608V34.772H65.36ZM59.648 31.46V35.108H58.272V31.46H59.648ZM55.472 24.596V27.06H62.48V24.596H63.856V31.812H54.096V24.596H55.472ZM55.472 30.692H62.48V28.18H55.472V30.692ZM78.3524 25.636V26.756H66.8964V25.636H78.3524ZM79.0244 34.932V36.068H66.2724V34.932H79.0244ZM73.3284 32.74V35.38H71.9364V32.74H73.3284ZM72.6244 27.652C74.0644 27.652 75.195 27.892 76.0164 28.372C76.8377 28.8413 77.2484 29.4973 77.2484 30.34C77.2484 31.1827 76.8377 31.844 76.0164 32.324C75.195 32.804 74.0644 33.044 72.6244 33.044C71.1844 33.044 70.0537 32.804 69.2324 32.324C68.411 31.844 68.0004 31.1827 68.0004 30.34C68.0004 29.4867 68.411 28.8253 69.2324 28.356C70.0537 27.8867 71.1844 27.652 72.6244 27.652ZM72.6244 28.74C71.9524 28.74 71.371 28.804 70.8804 28.932C70.4004 29.0493 70.0324 29.2307 69.7764 29.476C69.5204 29.7107 69.3924 29.9987 69.3924 30.34C69.3924 30.6707 69.5204 30.9587 69.7764 31.204C70.0324 31.4387 70.4004 31.62 70.8804 31.748C71.371 31.876 71.9524 31.94 72.6244 31.94C73.2857 31.94 73.8564 31.876 74.3364 31.748C74.827 31.62 75.2004 31.4387 75.4564 31.204C75.7124 30.9587 75.8404 30.6707 75.8404 30.34C75.8404 29.9987 75.7124 29.7107 75.4564 29.476C75.2004 29.2307 74.827 29.0493 74.3364 28.932C73.8564 28.804 73.2857 28.74 72.6244 28.74ZM73.3284 23.828V26.324H71.9364V23.828H73.3284ZM84.4808 25.668V27.86C84.4808 28.8307 84.3048 29.796 83.9528 30.756C83.6008 31.716 83.1208 32.5747 82.5128 33.332C81.9154 34.0787 81.2488 34.6387 80.5128 35.012L79.6968 33.908C80.3688 33.5773 80.9874 33.0867 81.5528 32.436C82.1181 31.7853 82.5608 31.0547 82.8808 30.244C83.2114 29.4333 83.3768 28.6387 83.3768 27.86V25.668H84.4808ZM84.7368 25.668V27.86C84.7368 28.596 84.8914 29.3427 85.2008 30.1C85.5101 30.8573 85.9368 31.5453 86.4808 32.164C87.0354 32.7827 87.6541 33.2467 88.3368 33.556L87.5528 34.66C86.8061 34.2973 86.1341 33.7587 85.5368 33.044C84.9394 32.3293 84.4701 31.5187 84.1288 30.612C83.7981 29.7053 83.6328 28.788 83.6328 27.86V25.668H84.7368ZM87.8088 25.06V26.212H80.1928V25.06H87.8088ZM90.7848 23.636V37.716H89.3928V23.636H90.7848ZM93.0568 29.284V30.436H90.4648V29.284H93.0568ZM106.353 34.852V35.988H93.6011V34.852H106.353ZM100.641 31.876V35.316H99.2651V31.876H100.641ZM104.801 24.644V28.964H96.5451V31.716H95.1851V27.86H103.425V25.764H95.1531V24.644H104.801ZM105.121 31.156V32.276H95.1851V31.156H105.121ZM122.169 23.604V37.732H120.777V23.604H122.169ZM114.713 24.692C115.406 24.692 116.025 24.8947 116.569 25.3C117.124 25.7053 117.55 26.2813 117.849 27.028C118.158 27.764 118.313 28.628 118.313 29.62C118.313 30.6013 118.158 31.4653 117.849 32.212C117.55 32.9587 117.124 33.5347 116.569 33.94C116.025 34.3453 115.406 34.548 114.713 34.548C114.02 34.548 113.396 34.3507 112.841 33.956C112.297 33.5507 111.87 32.9747 111.561 32.228C111.262 31.4813 111.113 30.612 111.113 29.62C111.113 28.628 111.262 27.764 111.561 27.028C111.87 26.2813 112.297 25.7053 112.841 25.3C113.396 24.8947 114.02 24.692 114.713 24.692ZM114.713 25.94C114.276 25.94 113.886 26.0893 113.545 26.388C113.204 26.6867 112.937 27.1133 112.745 27.668C112.553 28.2227 112.457 28.8733 112.457 29.62C112.457 30.356 112.553 31.0067 112.745 31.572C112.937 32.1267 113.204 32.5587 113.545 32.868C113.886 33.1667 114.276 33.316 114.713 33.316C115.15 33.316 115.54 33.1667 115.881 32.868C116.233 32.5587 116.5 32.1267 116.681 31.572C116.873 31.0067 116.969 30.356 116.969 29.62C116.969 28.884 116.873 28.2387 116.681 27.684C116.5 27.1187 116.233 26.6867 115.881 26.388C115.54 26.0893 115.15 25.94 114.713 25.94ZM128.761 28.388V31.028H127.401V28.388H128.761ZM133.913 28.388V31.028H132.537V28.388H133.913ZM137.017 30.564V31.652H124.297V30.564H137.017ZM130.649 32.676C132.164 32.676 133.348 32.8947 134.201 33.332C135.055 33.7693 135.481 34.388 135.481 35.188C135.481 35.988 135.055 36.6067 134.201 37.044C133.348 37.4813 132.164 37.7 130.649 37.7C129.135 37.7 127.951 37.4813 127.097 37.044C126.244 36.6067 125.817 35.9827 125.817 35.172C125.817 34.3827 126.244 33.7693 127.097 33.332C127.951 32.8947 129.135 32.676 130.649 32.676ZM130.649 33.748C129.924 33.748 129.305 33.8067 128.793 33.924C128.281 34.0307 127.887 34.1907 127.609 34.404C127.343 34.6173 127.209 34.8733 127.209 35.172C127.209 35.6413 127.508 36.004 128.105 36.26C128.703 36.5053 129.551 36.628 130.649 36.628C131.737 36.628 132.58 36.5053 133.177 36.26C133.775 36.004 134.073 35.6413 134.073 35.172C134.073 34.8733 133.94 34.6173 133.673 34.404C133.407 34.1907 133.012 34.0307 132.489 33.924C131.977 33.8067 131.364 33.748 130.649 33.748ZM130.649 23.892C131.663 23.892 132.543 23.9987 133.289 24.212C134.047 24.4147 134.623 24.7133 135.017 25.108C135.423 25.5027 135.625 25.972 135.625 26.516C135.625 27.06 135.423 27.5293 135.017 27.924C134.623 28.308 134.047 28.6067 133.289 28.82C132.543 29.0227 131.663 29.124 130.649 29.124C129.636 29.124 128.756 29.0227 128.009 28.82C127.263 28.6067 126.687 28.308 126.281 27.924C125.876 27.5293 125.673 27.06 125.673 26.516C125.673 25.972 125.876 25.5027 126.281 25.108C126.687 24.7133 127.263 24.4147 128.009 24.212C128.756 23.9987 129.636 23.892 130.649 23.892ZM130.649 24.948C129.924 24.948 129.295 25.012 128.761 25.14C128.228 25.268 127.817 25.4493 127.529 25.684C127.241 25.9187 127.097 26.196 127.097 26.516C127.097 27.0067 127.412 27.3907 128.041 27.668C128.681 27.9347 129.551 28.068 130.649 28.068C131.748 28.068 132.612 27.9347 133.241 27.668C133.881 27.3907 134.201 27.0067 134.201 26.516C134.201 26.196 134.057 25.9187 133.769 25.684C133.481 25.4493 133.071 25.268 132.537 25.14C132.004 25.012 131.375 24.948 130.649 24.948Z" fill="#1D2633" style="fill:#1D2633;fill:color(display-p3 0.1137 0.1490 0.2000);fill-opacity:1;"/>
<path d="M55.816 48.8V50.708C55.816 51.46 55.688 52.196 55.432 52.916C55.176 53.636 54.824 54.28 54.376 54.848C53.936 55.408 53.444 55.836 52.9 56.132L52.348 55.4C52.844 55.152 53.3 54.78 53.716 54.284C54.14 53.78 54.472 53.216 54.712 52.592C54.96 51.96 55.084 51.332 55.084 50.708V48.8H55.816ZM55.96 48.8V50.708C55.96 51.308 56.08 51.912 56.32 52.52C56.568 53.12 56.896 53.66 57.304 54.14C57.72 54.612 58.172 54.968 58.66 55.208L58.108 55.916C57.572 55.636 57.084 55.228 56.644 54.692C56.212 54.148 55.868 53.532 55.612 52.844C55.364 52.148 55.24 51.436 55.24 50.708V48.8H55.96ZM60.532 47.876V58.376H59.632V47.876H60.532ZM62.284 52.148V52.916H60.328V52.148H62.284ZM70.8763 47.888V54.14H69.9763V47.888H70.8763ZM72.4483 50.588V51.344H70.5883V50.588H72.4483ZM70.8763 54.668V58.232H64.2883V54.668H70.8763ZM65.1643 55.376V57.5H70.0003V55.376H65.1643ZM64.0243 52.832C65.0643 52.832 65.9483 52.812 66.6763 52.772C67.4043 52.724 68.1563 52.632 68.9323 52.496L69.0163 53.228C68.2243 53.364 67.4523 53.456 66.7003 53.504C65.9563 53.552 65.0643 53.576 64.0243 53.576H63.2083V52.832H64.0243ZM67.9003 48.452V51.296H64.0963V53.252H63.2083V50.6H67.0123V49.196H63.1843V48.452H67.9003ZM82.4686 52.304V53.036H72.9886V52.304H82.4686ZM81.3406 50.696V51.416H74.2606V50.696H81.3406ZM81.2206 48.236V48.98H75.1486V51.26H74.2606V48.236H81.2206ZM81.2326 53.984V56.408H75.0406V57.788H74.1646V55.736H80.3566V54.692H74.1286V53.984H81.2326ZM81.5566 57.524V58.256H74.1646V57.524H81.5566ZM89.5008 51.98V52.724H87.4848V51.98H89.5008ZM92.1288 47.876V58.376H91.2648V47.876H92.1288ZM90.0408 48.116V57.836H89.1888V48.116H90.0408ZM85.5768 48.764C86.0328 48.764 86.4288 48.912 86.7648 49.208C87.1008 49.504 87.3608 49.928 87.5448 50.48C87.7288 51.024 87.8208 51.664 87.8208 52.4C87.8208 53.144 87.7288 53.792 87.5448 54.344C87.3608 54.888 87.1008 55.308 86.7648 55.604C86.4288 55.9 86.0328 56.048 85.5768 56.048C85.1288 56.048 84.7368 55.9 84.4008 55.604C84.0728 55.308 83.8168 54.884 83.6328 54.332C83.4488 53.78 83.3568 53.136 83.3568 52.4C83.3568 51.664 83.4488 51.024 83.6328 50.48C83.8168 49.928 84.0728 49.504 84.4008 49.208C84.7368 48.912 85.1288 48.764 85.5768 48.764ZM85.5768 49.604C85.2968 49.604 85.0488 49.72 84.8328 49.952C84.6248 50.176 84.4648 50.5 84.3528 50.924C84.2408 51.34 84.1848 51.832 84.1848 52.4C84.1848 52.968 84.2408 53.464 84.3528 53.888C84.4648 54.312 84.6248 54.64 84.8328 54.872C85.0488 55.096 85.2968 55.208 85.5768 55.208C85.8648 55.208 86.1128 55.096 86.3208 54.872C86.5368 54.64 86.7008 54.312 86.8128 53.888C86.9328 53.464 86.9928 52.968 86.9928 52.4C86.9928 51.832 86.9328 51.34 86.8128 50.924C86.7008 50.5 86.5368 50.176 86.3208 49.952C86.1128 49.72 85.8648 49.604 85.5768 49.604ZM102.377 47.876V58.376H101.513V47.876H102.377ZM99.5931 52.196V52.928H96.9171V52.196H99.5931ZM100.181 48.152V57.824H99.3291V48.152H100.181ZM97.9611 49.22C97.9611 50.148 97.8251 51.032 97.5531 51.872C97.2811 52.712 96.8491 53.492 96.2571 54.212C95.6731 54.932 94.9251 55.564 94.0131 56.108L93.4851 55.448C94.2931 54.96 94.9651 54.404 95.5011 53.78C96.0371 53.148 96.4331 52.464 96.6891 51.728C96.9531 50.992 97.0851 50.208 97.0851 49.376V49.22H97.9611ZM97.4331 49.22V49.964H93.9171V49.22H97.4331ZM114.659 52.796V53.54H107.471V52.796H114.659ZM115.763 56.276V57.032H106.247V56.276H115.763ZM111.431 53.108V56.588H110.543V53.108H111.431ZM114.539 48.716V49.46H108.371V53.132H107.471V48.716H114.539ZM121.679 53.216V55.052H120.791V53.216H121.679ZM121.235 48.08C121.987 48.08 122.639 48.16 123.191 48.32C123.751 48.472 124.179 48.696 124.475 48.992C124.771 49.288 124.919 49.64 124.919 50.048C124.919 50.456 124.771 50.808 124.475 51.104C124.179 51.392 123.751 51.616 123.191 51.776C122.639 51.928 121.987 52.004 121.235 52.004C120.483 52.004 119.827 51.928 119.267 51.776C118.715 51.616 118.291 51.392 117.995 51.104C117.699 50.808 117.551 50.456 117.551 50.048C117.551 49.64 117.699 49.288 117.995 48.992C118.291 48.696 118.715 48.472 119.267 48.32C119.827 48.16 120.483 48.08 121.235 48.08ZM121.235 48.788C120.675 48.788 120.187 48.84 119.771 48.944C119.355 49.04 119.035 49.184 118.811 49.376C118.587 49.56 118.475 49.784 118.475 50.048C118.475 50.304 118.587 50.528 118.811 50.72C119.035 50.904 119.355 51.048 119.771 51.152C120.187 51.248 120.675 51.296 121.235 51.296C121.795 51.296 122.283 51.248 122.699 51.152C123.115 51.048 123.435 50.904 123.659 50.72C123.883 50.528 123.995 50.304 123.995 50.048C123.995 49.784 123.883 49.56 123.659 49.376C123.435 49.184 123.115 49.04 122.699 48.944C122.283 48.84 121.795 48.788 121.235 48.788ZM124.811 54.8V58.232H117.671V54.8H124.811ZM118.547 55.52V57.5H123.935V55.52H118.547ZM125.975 52.832V53.576H116.495V52.832H125.975ZM131.484 48.068C132.644 48.068 133.548 48.224 134.196 48.536C134.844 48.848 135.168 49.296 135.168 49.88C135.168 50.464 134.844 50.916 134.196 51.236C133.548 51.548 132.644 51.704 131.484 51.704C130.324 51.704 129.42 51.548 128.772 51.236C128.124 50.916 127.8 50.464 127.8 49.88C127.8 49.296 128.124 48.848 128.772 48.536C129.42 48.224 130.324 48.068 131.484 48.068ZM131.484 48.74C130.62 48.74 129.944 48.84 129.456 49.04C128.968 49.24 128.724 49.52 128.724 49.88C128.724 50.24 128.964 50.52 129.444 50.72C129.932 50.92 130.612 51.02 131.484 51.02C132.356 51.02 133.032 50.92 133.512 50.72C134 50.52 134.244 50.24 134.244 49.88C134.244 49.52 134 49.24 133.512 49.04C133.024 48.84 132.348 48.74 131.484 48.74ZM136.224 52.436V53.168H126.744V52.436H136.224ZM135 54.092V56.42H128.808V57.728H127.932V55.76H134.124V54.788H127.896V54.092H135ZM135.324 57.548V58.256H127.932V57.548H135.324ZM144.545 48.908V49.364C144.545 49.964 144.349 50.516 143.957 51.02C143.573 51.524 143.065 51.948 142.433 52.292C141.809 52.628 141.145 52.856 140.441 52.976L140.093 52.244C140.701 52.156 141.285 51.972 141.845 51.692C142.413 51.412 142.873 51.068 143.225 50.66C143.585 50.252 143.765 49.82 143.765 49.364V48.908H144.545ZM144.761 48.908V49.364C144.761 49.82 144.937 50.252 145.289 50.66C145.649 51.068 146.109 51.412 146.669 51.692C147.237 51.972 147.825 52.156 148.433 52.244L148.085 52.976C147.381 52.856 146.713 52.628 146.081 52.292C145.457 51.948 144.949 51.524 144.557 51.02C144.173 50.516 143.981 49.964 143.981 49.364V48.908H144.761ZM144.689 54.356V58.376H143.801V54.356H144.689ZM149.009 53.888V54.632H139.517V53.888H149.009ZM148.085 48.548V49.28H140.417V48.548H148.085ZM157.554 48.944V49.688H150.774V48.944H157.554ZM159.258 56.12V56.876H149.766V56.12H159.258ZM154.386 52.352V56.504H153.498V52.352H154.386ZM158.094 48.944V49.988C158.094 50.876 158.074 51.672 158.034 52.376C157.994 53.072 157.89 53.888 157.722 54.824L156.81 54.716C156.978 53.828 157.082 53.036 157.122 52.34C157.17 51.644 157.194 50.86 157.194 49.988V48.944H158.094ZM171.12 47.888V53.708H170.22V47.888H171.12ZM166.044 48.272V49.28C166.044 49.92 165.916 50.52 165.66 51.08C165.412 51.64 165.06 52.132 164.604 52.556C164.156 52.972 163.644 53.284 163.068 53.492L162.612 52.784C163.132 52.6 163.596 52.332 164.004 51.98C164.412 51.62 164.728 51.208 164.952 50.744C165.184 50.272 165.3 49.784 165.3 49.28V48.272H166.044ZM166.2 48.272V49.28C166.2 49.768 166.316 50.232 166.548 50.672C166.78 51.112 167.096 51.5 167.496 51.836C167.904 52.164 168.36 52.412 168.864 52.58L168.432 53.3C167.856 53.1 167.34 52.804 166.884 52.412C166.436 52.012 166.084 51.544 165.828 51.008C165.58 50.472 165.456 49.896 165.456 49.28V48.272H166.2ZM171.192 54.356V55.088H164.196V54.356H171.192ZM171.3 57.5V58.232H164.1V57.5H171.3ZM166.548 54.68V57.92H165.66V54.68H166.548ZM169.74 54.68V57.92H168.852V54.68H169.74ZM175.572 48.692C176.076 48.692 176.524 48.844 176.916 49.148C177.316 49.444 177.624 49.868 177.84 50.42C178.064 50.972 178.176 51.612 178.176 52.34C178.176 53.076 178.064 53.72 177.84 54.272C177.624 54.824 177.316 55.252 176.916 55.556C176.524 55.852 176.076 56 175.572 56C175.068 56 174.616 55.852 174.216 55.556C173.824 55.252 173.516 54.824 173.292 54.272C173.076 53.72 172.968 53.076 172.968 52.34C172.968 51.612 173.076 50.972 173.292 50.42C173.516 49.868 173.824 49.444 174.216 49.148C174.616 48.844 175.068 48.692 175.572 48.692ZM175.572 49.496C175.228 49.496 174.924 49.616 174.66 49.856C174.396 50.088 174.188 50.42 174.036 50.852C173.892 51.276 173.82 51.772 173.82 52.34C173.82 52.908 173.892 53.408 174.036 53.84C174.188 54.272 174.396 54.608 174.66 54.848C174.924 55.08 175.228 55.196 175.572 55.196C175.916 55.196 176.22 55.08 176.484 54.848C176.748 54.608 176.952 54.272 177.096 53.84C177.248 53.408 177.324 52.908 177.324 52.34C177.324 51.772 177.248 51.276 177.096 50.852C176.952 50.42 176.748 50.088 176.484 49.856C176.22 49.616 175.916 49.496 175.572 49.496ZM181.404 47.864V58.388H180.516V47.864H181.404ZM180.912 51.908V52.628H177.864V51.908H180.912ZM186.288 53.276V56.444H185.4V53.276H186.288ZM190.188 53.276V56.444H189.288V53.276H190.188ZM192.552 56.264V57.008H183.036V56.264H192.552ZM187.776 48.548C188.512 48.548 189.168 48.66 189.744 48.884C190.32 49.1 190.768 49.412 191.088 49.82C191.416 50.228 191.58 50.7 191.58 51.236C191.58 51.772 191.42 52.244 191.1 52.652C190.78 53.052 190.332 53.364 189.756 53.588C189.18 53.804 188.52 53.912 187.776 53.912C187.04 53.912 186.384 53.804 185.808 53.588C185.232 53.364 184.78 53.052 184.452 52.652C184.132 52.244 183.972 51.772 183.972 51.236C183.972 50.7 184.132 50.228 184.452 49.82C184.78 49.412 185.232 49.1 185.808 48.884C186.384 48.66 187.04 48.548 187.776 48.548ZM187.776 49.268C187.208 49.268 186.7 49.352 186.252 49.52C185.812 49.68 185.468 49.908 185.22 50.204C184.972 50.5 184.848 50.844 184.848 51.236C184.848 51.628 184.972 51.972 185.22 52.268C185.468 52.564 185.812 52.796 186.252 52.964C186.7 53.124 187.208 53.204 187.776 53.204C188.344 53.204 188.848 53.124 189.288 52.964C189.736 52.796 190.084 52.564 190.332 52.268C190.588 51.972 190.716 51.628 190.716 51.236C190.716 50.844 190.588 50.5 190.332 50.204C190.084 49.908 189.736 49.68 189.288 49.52C188.848 49.352 188.344 49.268 187.776 49.268Z" fill="#1D2633" fill-opacity="0.8" style="fill:#1D2633;fill:color(display-p3 0.1137 0.1490 0.2000);fill-opacity:0.8;"/>
<g clip-path="url(#clip1_9106_4087)">
<path d="M337.631 40.5L334.915 37.7846C334.823 37.6923 334.776 37.5762 334.774 37.4365C334.772 37.2968 334.819 37.1786 334.915 37.082C335.012 36.9854 335.129 36.9371 335.267 36.9371C335.404 36.9371 335.521 36.9854 335.618 37.082L338.614 40.0781C338.677 40.1406 338.721 40.2064 338.746 40.2756C338.772 40.3449 338.785 40.4196 338.785 40.5C338.785 40.5803 338.772 40.6551 338.746 40.7243C338.721 40.7935 338.677 40.8594 338.614 40.9218L335.618 43.918C335.526 44.0102 335.41 44.0574 335.27 44.0596C335.13 44.0617 335.012 44.0145 334.915 43.918C334.819 43.8213 334.771 43.7042 334.771 43.5666C334.771 43.4291 334.819 43.312 334.915 43.2153L337.631 40.5Z" fill="#1D2633" fill-opacity="0.6" style="fill:#1D2633;fill:color(display-p3 0.1137 0.1490 0.2000);fill-opacity:0.6;"/>
</g>
<defs>
<clipPath id="clip0_9106_4087">
<rect width="24" height="24" fill="white" style="fill:white;fill-opacity:1;" transform="translate(16 28.5)"/>
</clipPath>
<clipPath id="clip1_9106_4087">
<rect width="16" height="16" fill="white" style="fill:white;fill-opacity:1;" transform="translate(329 32.5)"/>
</clipPath>
</defs>
</svg>
