<svg width="361" height="81" viewBox="0 0 361 81" fill="none" xmlns="http://www.w3.org/2000/svg">
<path d="M0 26.1C0 17.1392 0 12.6587 1.7439 9.23615C3.27787 6.22556 5.72556 3.77787 8.73615 2.2439C12.1587 0.5 16.6392 0.5 25.6 0.5H335.4C344.361 0.5 348.841 0.5 352.264 2.2439C355.274 3.77787 357.722 6.22556 359.256 9.23615C361 12.6587 361 17.1392 361 26.1V54.9C361 63.8608 361 68.3413 359.256 71.7638C357.722 74.7744 355.274 77.2221 352.264 78.7561C348.841 80.5 344.361 80.5 335.4 80.5H25.6C16.6392 80.5 12.1587 80.5 8.73615 78.7561C5.72556 77.2221 3.27787 74.7744 1.7439 71.7638C0 68.3413 0 63.8608 0 54.9V26.1Z" fill="#929DAD" fill-opacity="0.08" style="fill:#929DAD;fill:color(display-p3 0.5725 0.6157 0.6784);fill-opacity:0.08;"/>
<g clip-path="url(#clip0_9106_4133)">
<path d="M26.3493 50.4007C25.0365 50.4007 23.9134 49.9341 22.9801 49.0007C22.0467 48.0674 21.5801 46.9443 21.5801 45.6315C21.5801 44.7045 21.8167 43.8731 22.2898 43.1372C22.7628 42.4014 23.3866 41.8469 24.1611 41.4737C24.3367 41.3584 24.5226 41.3273 24.7186 41.3805C24.9147 41.4336 25.0706 41.5481 25.1861 41.7237C25.3014 41.8994 25.335 42.0853 25.2868 42.2815C25.2388 42.4776 25.127 42.6334 24.9513 42.7487C24.4013 43.0001 23.952 43.3799 23.6033 43.8882C23.2545 44.3966 23.0801 44.9776 23.0801 45.6315C23.0801 46.5418 23.3974 47.3142 24.0321 47.9487C24.6667 48.5834 25.4392 48.9007 26.3493 48.9007C27.0032 48.9007 27.5843 48.7264 28.0928 48.3777C28.6012 48.0289 28.9809 47.5795 29.2321 47.0295C29.3476 46.8538 29.5033 46.742 29.6993 46.694C29.8955 46.6458 30.0814 46.6795 30.2571 46.795C30.4327 46.9103 30.5472 47.0645 30.6003 47.2575C30.6535 47.4503 30.6224 47.6378 30.5071 47.82C30.1404 48.5878 29.5859 49.2099 28.8436 49.6862C28.1012 50.1626 27.2698 50.4007 26.3493 50.4007ZM34.2148 50.4007C34.002 50.4007 33.8237 50.3289 33.6801 50.1852C33.5366 50.0417 33.4648 49.8636 33.4648 49.6507V45.6315C33.4648 45.5545 33.4424 45.4936 33.3976 45.4487C33.3526 45.4039 33.2917 45.3815 33.2148 45.3815H28.3686C27.8827 45.3815 27.4664 45.2081 27.1196 44.8612C26.7727 44.5144 26.5993 44.0981 26.5993 43.6122V37.6315C26.5993 37.1456 26.7696 36.7325 27.1101 36.392C27.4504 36.0516 27.8635 35.8815 28.3493 35.8815C28.666 35.8815 28.9557 35.9577 29.2186 36.1102C29.4814 36.2629 29.7763 36.5276 30.1033 36.9045C30.8982 37.843 31.6029 38.519 32.2176 38.9325C32.8324 39.346 33.5091 39.6258 34.2476 39.772C34.4602 39.8155 34.6426 39.9132 34.7946 40.0652C34.9466 40.2171 35.0226 40.3994 35.0226 40.6122C35.0226 40.8251 34.9424 40.9991 34.7821 41.1342C34.6217 41.2696 34.4403 41.3154 34.2378 41.2717C33.4403 41.1257 32.6974 40.8668 32.0091 40.495C31.3206 40.1231 30.6584 39.634 30.0226 39.0275V43.4585H33.1956C33.6814 43.4585 34.0977 43.6319 34.4446 43.9787C34.7914 44.3254 34.9648 44.7417 34.9648 45.2277V49.6507C34.9648 49.8636 34.893 50.0417 34.7493 50.1852C34.6058 50.3289 34.4277 50.4007 34.2148 50.4007ZM28.3493 34.7662C27.8443 34.7662 27.4104 34.5848 27.0476 34.222C26.6847 33.8591 26.5033 33.4251 26.5033 32.92C26.5033 32.4148 26.6847 31.9808 27.0476 31.618C27.4104 31.2551 27.8443 31.0737 28.3493 31.0737C28.8545 31.0737 29.2885 31.2551 29.6513 31.618C30.0142 31.9808 30.1956 32.4148 30.1956 32.92C30.1956 33.4251 30.0142 33.8591 29.6513 34.222C29.2885 34.5848 28.8545 34.7662 28.3493 34.7662Z" fill="#1D2633" style="fill:#1D2633;fill:color(display-p3 0.1137 0.1490 0.2000);fill-opacity:1;"/>
</g>
<path d="M63.904 30.148V31.284H54.208V30.148H63.904ZM65.36 34.804V35.956H52.608V34.804H65.36ZM59.648 30.644V35.236H58.272V30.644H59.648ZM63.76 24.724V25.844H55.6V30.66H54.208V24.724H63.76ZM73.3124 30.82V33.236H71.9364V30.82H73.3124ZM72.6244 23.892C73.6377 23.892 74.5177 23.9987 75.2644 24.212C76.0217 24.4147 76.5977 24.7187 76.9924 25.124C77.3977 25.5187 77.6004 25.9933 77.6004 26.548C77.6004 27.092 77.3977 27.5613 76.9924 27.956C76.5977 28.3507 76.027 28.6547 75.2804 28.868C74.5337 29.0813 73.6484 29.188 72.6244 29.188C71.611 29.188 70.731 29.0813 69.9844 28.868C69.2377 28.6547 68.6617 28.3507 68.2564 27.956C67.851 27.5613 67.6484 27.092 67.6484 26.548C67.6484 25.9933 67.851 25.5187 68.2564 25.124C68.6617 24.7187 69.2377 24.4147 69.9844 24.212C70.731 23.9987 71.611 23.892 72.6244 23.892ZM72.6244 24.964C71.899 24.964 71.2697 25.028 70.7364 25.156C70.203 25.2733 69.7924 25.4493 69.5044 25.684C69.2164 25.9187 69.0724 26.2067 69.0724 26.548C69.0724 26.868 69.2164 27.1453 69.5044 27.38C69.7924 27.6147 70.203 27.796 70.7364 27.924C71.2697 28.0413 71.899 28.1 72.6244 28.1C73.3604 28.1 73.995 28.0413 74.5284 27.924C75.0617 27.796 75.467 27.6147 75.7444 27.38C76.0324 27.1453 76.1764 26.868 76.1764 26.548C76.1764 26.2067 76.0324 25.9187 75.7444 25.684C75.4564 25.4493 75.0457 25.2733 74.5124 25.156C73.9897 25.028 73.3604 24.964 72.6244 24.964ZM77.4404 32.884V37.524H67.8244V32.884H77.4404ZM69.1844 33.988V36.404H76.0804V33.988H69.1844ZM78.9924 30.212V31.332H66.2724V30.212H78.9924ZM86.2888 23.876C87.8568 23.876 89.0781 24.084 89.9528 24.5C90.8274 24.916 91.2648 25.5133 91.2648 26.292C91.2648 27.0813 90.8274 27.6893 89.9528 28.116C89.0781 28.532 87.8568 28.74 86.2888 28.74C84.7208 28.74 83.4994 28.532 82.6248 28.116C81.7501 27.6893 81.3128 27.0813 81.3128 26.292C81.3128 25.5133 81.7501 24.916 82.6248 24.5C83.4994 24.084 84.7208 23.876 86.2888 23.876ZM86.2888 24.9C85.1688 24.9 84.2994 25.0227 83.6808 25.268C83.0621 25.5133 82.7528 25.86 82.7528 26.308C82.7528 26.7453 83.0568 27.0867 83.6648 27.332C84.2834 27.5773 85.1581 27.7 86.2888 27.7C87.4301 27.7 88.3048 27.5773 88.9128 27.332C89.5314 27.0867 89.8408 26.7453 89.8408 26.308C89.8408 25.86 89.5314 25.5133 88.9128 25.268C88.2941 25.0227 87.4194 24.9 86.2888 24.9ZM92.6568 29.636V30.756H79.9368V29.636H92.6568ZM91.0248 31.892V35.124H82.8488V36.772H81.5048V34.132H89.6808V32.964H81.4568V31.892H91.0248ZM91.4568 36.484V37.556H81.5048V36.484H91.4568ZM107.929 23.636V31.86H106.537V23.636H107.929ZM109.977 26.98V28.148H107.545V26.98H109.977ZM98.9206 24.404V26.516H102.729V24.404H104.089V31.012H97.5446V24.404H98.9206ZM98.9206 29.876H102.729V27.62H98.9206V29.876ZM108.041 32.612V33.732H100.473V37.172H99.0966V32.612H108.041ZM108.313 36.388V37.524H99.0966V36.388H108.313ZM116.985 23.876C118.553 23.876 119.774 24.084 120.649 24.5C121.524 24.916 121.961 25.5133 121.961 26.292C121.961 27.0813 121.524 27.6893 120.649 28.116C119.774 28.532 118.553 28.74 116.985 28.74C115.417 28.74 114.196 28.532 113.321 28.116C112.446 27.6893 112.009 27.0813 112.009 26.292C112.009 25.5133 112.446 24.916 113.321 24.5C114.196 24.084 115.417 23.876 116.985 23.876ZM116.985 24.9C115.865 24.9 114.996 25.0227 114.377 25.268C113.758 25.5133 113.449 25.86 113.449 26.308C113.449 26.7453 113.753 27.0867 114.361 27.332C114.98 27.5773 115.854 27.7 116.985 27.7C118.126 27.7 119.001 27.5773 119.609 27.332C120.228 27.0867 120.537 26.7453 120.537 26.308C120.537 25.86 120.228 25.5133 119.609 25.268C118.99 25.0227 118.116 24.9 116.985 24.9ZM123.353 29.636V30.756H110.633V29.636H123.353ZM121.721 31.892V35.124H113.545V36.772H112.201V34.132H120.377V32.964H112.153V31.892H121.721ZM122.153 36.484V37.556H112.201V36.484H122.153ZM132.209 24.836V27.284C132.209 28.3293 132.044 29.348 131.713 30.34C131.382 31.3213 130.918 32.196 130.321 32.964C129.734 33.732 129.062 34.3187 128.305 34.724L127.457 33.604C128.15 33.2627 128.769 32.756 129.313 32.084C129.868 31.412 130.3 30.6547 130.609 29.812C130.929 28.9693 131.089 28.1267 131.089 27.284V24.836H132.209ZM132.449 24.836V27.284C132.449 28.0947 132.598 28.9053 132.897 29.716C133.206 30.5267 133.628 31.252 134.161 31.892C134.705 32.532 135.313 33.0173 135.985 33.348L135.137 34.436C134.401 34.052 133.745 33.492 133.169 32.756C132.593 32.02 132.14 31.1773 131.809 30.228C131.489 29.2787 131.329 28.2973 131.329 27.284V24.836H132.449ZM138.513 23.636V37.716H137.121V23.636H138.513ZM140.801 29.284V30.468H138.193V29.284H140.801ZM152.289 23.636V32.02H150.897V23.636H152.289ZM154.353 27.188V28.356H151.857V27.188H154.353ZM152.289 32.708V37.524H143.377V32.708H152.289ZM144.737 33.796V36.404H150.945V33.796H144.737ZM143.057 30.18C144.476 30.18 145.665 30.1533 146.625 30.1C147.596 30.036 148.588 29.9187 149.601 29.748L149.729 30.852C148.695 31.0333 147.676 31.156 146.673 31.22C145.681 31.284 144.476 31.316 143.057 31.316H141.937V30.18H143.057ZM148.257 24.388V28.308H143.313V30.82H141.937V27.236H146.897V25.524H141.905V24.388H148.257ZM161.346 24.484C162.316 24.484 163.191 24.6493 163.97 24.98C164.759 25.3 165.372 25.7587 165.81 26.356C166.258 26.9427 166.482 27.62 166.482 28.388C166.482 29.1667 166.258 29.8493 165.81 30.436C165.372 31.0227 164.764 31.4813 163.986 31.812C163.207 32.132 162.327 32.292 161.346 32.292C160.375 32.292 159.5 32.132 158.722 31.812C157.943 31.4813 157.33 31.0227 156.882 30.436C156.434 29.8493 156.21 29.1667 156.21 28.388C156.21 27.62 156.434 26.9427 156.882 26.356C157.33 25.7587 157.943 25.3 158.722 24.98C159.5 24.6493 160.375 24.484 161.346 24.484ZM161.362 25.604C160.636 25.604 159.986 25.7213 159.41 25.956C158.834 26.1907 158.38 26.5213 158.05 26.948C157.719 27.364 157.554 27.844 157.554 28.388C157.554 28.9427 157.719 29.428 158.05 29.844C158.38 30.26 158.828 30.5853 159.394 30.82C159.97 31.0547 160.62 31.172 161.346 31.172C162.071 31.172 162.722 31.0547 163.298 30.82C163.884 30.5853 164.338 30.26 164.658 29.844C164.988 29.428 165.154 28.9427 165.154 28.388C165.154 27.844 164.988 27.364 164.658 26.948C164.338 26.5213 163.884 26.1907 163.298 25.956C162.722 25.7213 162.076 25.604 161.362 25.604ZM167.746 34.692V35.844H154.994V34.692H167.746ZM181.41 34.852V35.988H168.658V34.852H181.41ZM175.698 31.876V35.316H174.322V31.876H175.698ZM179.858 24.644V28.964H171.602V31.716H170.242V27.86H178.482V25.764H170.21V24.644H179.858ZM180.178 31.156V32.276H170.242V31.156H180.178ZM197.226 23.604V37.732H195.834V23.604H197.226ZM189.77 24.692C190.463 24.692 191.082 24.8947 191.626 25.3C192.181 25.7053 192.607 26.2813 192.906 27.028C193.215 27.764 193.37 28.628 193.37 29.62C193.37 30.6013 193.215 31.4653 192.906 32.212C192.607 32.9587 192.181 33.5347 191.626 33.94C191.082 34.3453 190.463 34.548 189.77 34.548C189.077 34.548 188.453 34.3507 187.898 33.956C187.354 33.5507 186.927 32.9747 186.618 32.228C186.319 31.4813 186.17 30.612 186.17 29.62C186.17 28.628 186.319 27.764 186.618 27.028C186.927 26.2813 187.354 25.7053 187.898 25.3C188.453 24.8947 189.077 24.692 189.77 24.692ZM189.77 25.94C189.333 25.94 188.943 26.0893 188.602 26.388C188.261 26.6867 187.994 27.1133 187.802 27.668C187.61 28.2227 187.514 28.8733 187.514 29.62C187.514 30.356 187.61 31.0067 187.802 31.572C187.994 32.1267 188.261 32.5587 188.602 32.868C188.943 33.1667 189.333 33.316 189.77 33.316C190.207 33.316 190.597 33.1667 190.938 32.868C191.29 32.5587 191.557 32.1267 191.738 31.572C191.93 31.0067 192.026 30.356 192.026 29.62C192.026 28.884 191.93 28.2387 191.738 27.684C191.557 27.1187 191.29 26.6867 190.938 26.388C190.597 26.0893 190.207 25.94 189.77 25.94ZM203.818 28.388V31.028H202.458V28.388H203.818ZM208.97 28.388V31.028H207.594V28.388H208.97ZM212.074 30.564V31.652H199.354V30.564H212.074ZM205.706 32.676C207.221 32.676 208.405 32.8947 209.258 33.332C210.112 33.7693 210.538 34.388 210.538 35.188C210.538 35.988 210.112 36.6067 209.258 37.044C208.405 37.4813 207.221 37.7 205.706 37.7C204.192 37.7 203.008 37.4813 202.154 37.044C201.301 36.6067 200.874 35.9827 200.874 35.172C200.874 34.3827 201.301 33.7693 202.154 33.332C203.008 32.8947 204.192 32.676 205.706 32.676ZM205.706 33.748C204.981 33.748 204.362 33.8067 203.85 33.924C203.338 34.0307 202.944 34.1907 202.666 34.404C202.4 34.6173 202.266 34.8733 202.266 35.172C202.266 35.6413 202.565 36.004 203.162 36.26C203.76 36.5053 204.608 36.628 205.706 36.628C206.794 36.628 207.637 36.5053 208.234 36.26C208.832 36.004 209.13 35.6413 209.13 35.172C209.13 34.8733 208.997 34.6173 208.73 34.404C208.464 34.1907 208.069 34.0307 207.546 33.924C207.034 33.8067 206.421 33.748 205.706 33.748ZM205.706 23.892C206.72 23.892 207.6 23.9987 208.346 24.212C209.104 24.4147 209.68 24.7133 210.074 25.108C210.48 25.5027 210.682 25.972 210.682 26.516C210.682 27.06 210.48 27.5293 210.074 27.924C209.68 28.308 209.104 28.6067 208.346 28.82C207.6 29.0227 206.72 29.124 205.706 29.124C204.693 29.124 203.813 29.0227 203.066 28.82C202.32 28.6067 201.744 28.308 201.338 27.924C200.933 27.5293 200.73 27.06 200.73 26.516C200.73 25.972 200.933 25.5027 201.338 25.108C201.744 24.7133 202.32 24.4147 203.066 24.212C203.813 23.9987 204.693 23.892 205.706 23.892ZM205.706 24.948C204.981 24.948 204.352 25.012 203.818 25.14C203.285 25.268 202.874 25.4493 202.586 25.684C202.298 25.9187 202.154 26.196 202.154 26.516C202.154 27.0067 202.469 27.3907 203.098 27.668C203.738 27.9347 204.608 28.068 205.706 28.068C206.805 28.068 207.669 27.9347 208.298 27.668C208.938 27.3907 209.258 27.0067 209.258 26.516C209.258 26.196 209.114 25.9187 208.826 25.684C208.538 25.4493 208.128 25.268 207.594 25.14C207.061 25.012 206.432 24.948 205.706 24.948Z" fill="#1D2633" style="fill:#1D2633;fill:color(display-p3 0.1137 0.1490 0.2000);fill-opacity:1;"/>
<path d="M55.816 48.8V50.708C55.816 51.46 55.688 52.196 55.432 52.916C55.176 53.636 54.824 54.28 54.376 54.848C53.936 55.408 53.444 55.836 52.9 56.132L52.348 55.4C52.844 55.152 53.3 54.78 53.716 54.284C54.14 53.78 54.472 53.216 54.712 52.592C54.96 51.96 55.084 51.332 55.084 50.708V48.8H55.816ZM55.96 48.8V50.708C55.96 51.308 56.08 51.912 56.32 52.52C56.568 53.12 56.896 53.66 57.304 54.14C57.72 54.612 58.172 54.968 58.66 55.208L58.108 55.916C57.572 55.636 57.084 55.228 56.644 54.692C56.212 54.148 55.868 53.532 55.612 52.844C55.364 52.148 55.24 51.436 55.24 50.708V48.8H55.96ZM60.532 47.876V58.376H59.632V47.876H60.532ZM62.284 52.148V52.916H60.328V52.148H62.284ZM70.8763 47.888V54.14H69.9763V47.888H70.8763ZM72.4483 50.588V51.344H70.5883V50.588H72.4483ZM70.8763 54.668V58.232H64.2883V54.668H70.8763ZM65.1643 55.376V57.5H70.0003V55.376H65.1643ZM64.0243 52.832C65.0643 52.832 65.9483 52.812 66.6763 52.772C67.4043 52.724 68.1563 52.632 68.9323 52.496L69.0163 53.228C68.2243 53.364 67.4523 53.456 66.7003 53.504C65.9563 53.552 65.0643 53.576 64.0243 53.576H63.2083V52.832H64.0243ZM67.9003 48.452V51.296H64.0963V53.252H63.2083V50.6H67.0123V49.196H63.1843V48.452H67.9003ZM82.4686 52.304V53.036H72.9886V52.304H82.4686ZM81.3406 50.696V51.416H74.2606V50.696H81.3406ZM81.2206 48.236V48.98H75.1486V51.26H74.2606V48.236H81.2206ZM81.2326 53.984V56.408H75.0406V57.788H74.1646V55.736H80.3566V54.692H74.1286V53.984H81.2326ZM81.5566 57.524V58.256H74.1646V57.524H81.5566ZM89.5008 51.98V52.724H87.4848V51.98H89.5008ZM92.1288 47.876V58.376H91.2648V47.876H92.1288ZM90.0408 48.116V57.836H89.1888V48.116H90.0408ZM85.5768 48.764C86.0328 48.764 86.4288 48.912 86.7648 49.208C87.1008 49.504 87.3608 49.928 87.5448 50.48C87.7288 51.024 87.8208 51.664 87.8208 52.4C87.8208 53.144 87.7288 53.792 87.5448 54.344C87.3608 54.888 87.1008 55.308 86.7648 55.604C86.4288 55.9 86.0328 56.048 85.5768 56.048C85.1288 56.048 84.7368 55.9 84.4008 55.604C84.0728 55.308 83.8168 54.884 83.6328 54.332C83.4488 53.78 83.3568 53.136 83.3568 52.4C83.3568 51.664 83.4488 51.024 83.6328 50.48C83.8168 49.928 84.0728 49.504 84.4008 49.208C84.7368 48.912 85.1288 48.764 85.5768 48.764ZM85.5768 49.604C85.2968 49.604 85.0488 49.72 84.8328 49.952C84.6248 50.176 84.4648 50.5 84.3528 50.924C84.2408 51.34 84.1848 51.832 84.1848 52.4C84.1848 52.968 84.2408 53.464 84.3528 53.888C84.4648 54.312 84.6248 54.64 84.8328 54.872C85.0488 55.096 85.2968 55.208 85.5768 55.208C85.8648 55.208 86.1128 55.096 86.3208 54.872C86.5368 54.64 86.7008 54.312 86.8128 53.888C86.9328 53.464 86.9928 52.968 86.9928 52.4C86.9928 51.832 86.9328 51.34 86.8128 50.924C86.7008 50.5 86.5368 50.176 86.3208 49.952C86.1128 49.72 85.8648 49.604 85.5768 49.604ZM102.377 47.876V58.376H101.513V47.876H102.377ZM99.5931 52.196V52.928H96.9171V52.196H99.5931ZM100.181 48.152V57.824H99.3291V48.152H100.181ZM97.9611 49.22C97.9611 50.148 97.8251 51.032 97.5531 51.872C97.2811 52.712 96.8491 53.492 96.2571 54.212C95.6731 54.932 94.9251 55.564 94.0131 56.108L93.4851 55.448C94.2931 54.96 94.9651 54.404 95.5011 53.78C96.0371 53.148 96.4331 52.464 96.6891 51.728C96.9531 50.992 97.0851 50.208 97.0851 49.376V49.22H97.9611ZM97.4331 49.22V49.964H93.9171V49.22H97.4331ZM114.659 52.796V53.54H107.471V52.796H114.659ZM115.763 56.276V57.032H106.247V56.276H115.763ZM111.431 53.108V56.588H110.543V53.108H111.431ZM114.539 48.716V49.46H108.371V53.132H107.471V48.716H114.539ZM121.679 53.216V55.052H120.791V53.216H121.679ZM121.235 48.08C121.987 48.08 122.639 48.16 123.191 48.32C123.751 48.472 124.179 48.696 124.475 48.992C124.771 49.288 124.919 49.64 124.919 50.048C124.919 50.456 124.771 50.808 124.475 51.104C124.179 51.392 123.751 51.616 123.191 51.776C122.639 51.928 121.987 52.004 121.235 52.004C120.483 52.004 119.827 51.928 119.267 51.776C118.715 51.616 118.291 51.392 117.995 51.104C117.699 50.808 117.551 50.456 117.551 50.048C117.551 49.64 117.699 49.288 117.995 48.992C118.291 48.696 118.715 48.472 119.267 48.32C119.827 48.16 120.483 48.08 121.235 48.08ZM121.235 48.788C120.675 48.788 120.187 48.84 119.771 48.944C119.355 49.04 119.035 49.184 118.811 49.376C118.587 49.56 118.475 49.784 118.475 50.048C118.475 50.304 118.587 50.528 118.811 50.72C119.035 50.904 119.355 51.048 119.771 51.152C120.187 51.248 120.675 51.296 121.235 51.296C121.795 51.296 122.283 51.248 122.699 51.152C123.115 51.048 123.435 50.904 123.659 50.72C123.883 50.528 123.995 50.304 123.995 50.048C123.995 49.784 123.883 49.56 123.659 49.376C123.435 49.184 123.115 49.04 122.699 48.944C122.283 48.84 121.795 48.788 121.235 48.788ZM124.811 54.8V58.232H117.671V54.8H124.811ZM118.547 55.52V57.5H123.935V55.52H118.547ZM125.975 52.832V53.576H116.495V52.832H125.975ZM131.484 48.068C132.644 48.068 133.548 48.224 134.196 48.536C134.844 48.848 135.168 49.296 135.168 49.88C135.168 50.464 134.844 50.916 134.196 51.236C133.548 51.548 132.644 51.704 131.484 51.704C130.324 51.704 129.42 51.548 128.772 51.236C128.124 50.916 127.8 50.464 127.8 49.88C127.8 49.296 128.124 48.848 128.772 48.536C129.42 48.224 130.324 48.068 131.484 48.068ZM131.484 48.74C130.62 48.74 129.944 48.84 129.456 49.04C128.968 49.24 128.724 49.52 128.724 49.88C128.724 50.24 128.964 50.52 129.444 50.72C129.932 50.92 130.612 51.02 131.484 51.02C132.356 51.02 133.032 50.92 133.512 50.72C134 50.52 134.244 50.24 134.244 49.88C134.244 49.52 134 49.24 133.512 49.04C133.024 48.84 132.348 48.74 131.484 48.74ZM136.224 52.436V53.168H126.744V52.436H136.224ZM135 54.092V56.42H128.808V57.728H127.932V55.76H134.124V54.788H127.896V54.092H135ZM135.324 57.548V58.256H127.932V57.548H135.324ZM147.665 47.876V54.02H146.765V47.876H147.665ZM149.225 50.408V51.176H147.413V50.408H149.225ZM140.873 48.452V50.096H143.933V48.452H144.821V53.348H139.985V48.452H140.873ZM140.873 52.604H143.933V50.816H140.873V52.604ZM147.749 54.608V55.34H142.037V58.004H141.137V54.608H147.749ZM147.953 57.488V58.232H141.137V57.488H147.953ZM157.554 48.944V49.688H150.774V48.944H157.554ZM159.258 56.12V56.876H149.766V56.12H159.258ZM154.386 52.352V56.504H153.498V52.352H154.386ZM158.094 48.944V49.988C158.094 50.876 158.074 51.672 158.034 52.376C157.994 53.072 157.89 53.888 157.722 54.824L156.81 54.716C156.978 53.828 157.082 53.036 157.122 52.34C157.17 51.644 157.194 50.86 157.194 49.988V48.944H158.094ZM171.12 47.888V53.708H170.22V47.888H171.12ZM166.044 48.272V49.28C166.044 49.92 165.916 50.52 165.66 51.08C165.412 51.64 165.06 52.132 164.604 52.556C164.156 52.972 163.644 53.284 163.068 53.492L162.612 52.784C163.132 52.6 163.596 52.332 164.004 51.98C164.412 51.62 164.728 51.208 164.952 50.744C165.184 50.272 165.3 49.784 165.3 49.28V48.272H166.044ZM166.2 48.272V49.28C166.2 49.768 166.316 50.232 166.548 50.672C166.78 51.112 167.096 51.5 167.496 51.836C167.904 52.164 168.36 52.412 168.864 52.58L168.432 53.3C167.856 53.1 167.34 52.804 166.884 52.412C166.436 52.012 166.084 51.544 165.828 51.008C165.58 50.472 165.456 49.896 165.456 49.28V48.272H166.2ZM171.192 54.356V55.088H164.196V54.356H171.192ZM171.3 57.5V58.232H164.1V57.5H171.3ZM166.548 54.68V57.92H165.66V54.68H166.548ZM169.74 54.68V57.92H168.852V54.68H169.74ZM175.572 48.692C176.076 48.692 176.524 48.844 176.916 49.148C177.316 49.444 177.624 49.868 177.84 50.42C178.064 50.972 178.176 51.612 178.176 52.34C178.176 53.076 178.064 53.72 177.84 54.272C177.624 54.824 177.316 55.252 176.916 55.556C176.524 55.852 176.076 56 175.572 56C175.068 56 174.616 55.852 174.216 55.556C173.824 55.252 173.516 54.824 173.292 54.272C173.076 53.72 172.968 53.076 172.968 52.34C172.968 51.612 173.076 50.972 173.292 50.42C173.516 49.868 173.824 49.444 174.216 49.148C174.616 48.844 175.068 48.692 175.572 48.692ZM175.572 49.496C175.228 49.496 174.924 49.616 174.66 49.856C174.396 50.088 174.188 50.42 174.036 50.852C173.892 51.276 173.82 51.772 173.82 52.34C173.82 52.908 173.892 53.408 174.036 53.84C174.188 54.272 174.396 54.608 174.66 54.848C174.924 55.08 175.228 55.196 175.572 55.196C175.916 55.196 176.22 55.08 176.484 54.848C176.748 54.608 176.952 54.272 177.096 53.84C177.248 53.408 177.324 52.908 177.324 52.34C177.324 51.772 177.248 51.276 177.096 50.852C176.952 50.42 176.748 50.088 176.484 49.856C176.22 49.616 175.916 49.496 175.572 49.496ZM181.404 47.864V58.388H180.516V47.864H181.404ZM180.912 51.908V52.628H177.864V51.908H180.912ZM186.288 53.276V56.444H185.4V53.276H186.288ZM190.188 53.276V56.444H189.288V53.276H190.188ZM192.552 56.264V57.008H183.036V56.264H192.552ZM187.776 48.548C188.512 48.548 189.168 48.66 189.744 48.884C190.32 49.1 190.768 49.412 191.088 49.82C191.416 50.228 191.58 50.7 191.58 51.236C191.58 51.772 191.42 52.244 191.1 52.652C190.78 53.052 190.332 53.364 189.756 53.588C189.18 53.804 188.52 53.912 187.776 53.912C187.04 53.912 186.384 53.804 185.808 53.588C185.232 53.364 184.78 53.052 184.452 52.652C184.132 52.244 183.972 51.772 183.972 51.236C183.972 50.7 184.132 50.228 184.452 49.82C184.78 49.412 185.232 49.1 185.808 48.884C186.384 48.66 187.04 48.548 187.776 48.548ZM187.776 49.268C187.208 49.268 186.7 49.352 186.252 49.52C185.812 49.68 185.468 49.908 185.22 50.204C184.972 50.5 184.848 50.844 184.848 51.236C184.848 51.628 184.972 51.972 185.22 52.268C185.468 52.564 185.812 52.796 186.252 52.964C186.7 53.124 187.208 53.204 187.776 53.204C188.344 53.204 188.848 53.124 189.288 52.964C189.736 52.796 190.084 52.564 190.332 52.268C190.588 51.972 190.716 51.628 190.716 51.236C190.716 50.844 190.588 50.5 190.332 50.204C190.084 49.908 189.736 49.68 189.288 49.52C188.848 49.352 188.344 49.268 187.776 49.268Z" fill="#1D2633" fill-opacity="0.8" style="fill:#1D2633;fill:color(display-p3 0.1137 0.1490 0.2000);fill-opacity:0.8;"/>
<g clip-path="url(#clip1_9106_4133)">
<path d="M337.631 40.5001L334.915 37.7848C334.823 37.6924 334.776 37.5764 334.774 37.4366C334.772 37.2969 334.819 37.1788 334.915 37.0821C335.012 36.9855 335.129 36.9373 335.267 36.9373C335.404 36.9373 335.521 36.9855 335.618 37.0821L338.614 40.0783C338.677 40.1407 338.721 40.2065 338.746 40.2758C338.772 40.345 338.785 40.4198 338.785 40.5001C338.785 40.5804 338.772 40.6552 338.746 40.7244C338.721 40.7936 338.677 40.8595 338.614 40.9219L335.618 43.9181C335.526 44.0103 335.41 44.0575 335.27 44.0598C335.13 44.0619 335.012 44.0146 334.915 43.9181C334.819 43.8214 334.771 43.7043 334.771 43.5668C334.771 43.4292 334.819 43.3121 334.915 43.2154L337.631 40.5001Z" fill="#1D2633" fill-opacity="0.6" style="fill:#1D2633;fill:color(display-p3 0.1137 0.1490 0.2000);fill-opacity:0.6;"/>
</g>
<defs>
<clipPath id="clip0_9106_4133">
<rect width="24" height="24" fill="white" style="fill:white;fill-opacity:1;" transform="translate(16 28.5)"/>
</clipPath>
<clipPath id="clip1_9106_4133">
<rect width="16" height="16" fill="white" style="fill:white;fill-opacity:1;" transform="translate(329 32.5)"/>
</clipPath>
</defs>
</svg>
