<svg xmlns="http://www.w3.org/2000/svg" width="24" height="24" viewBox="0 0 24 24" fill="none">
  <path d="M5.01925 20.173C4.80642 20.173 4.62825 20.1012 4.48475 19.9577C4.34108 19.8141 4.26925 19.6358 4.26925 19.423V18.423H4C3.30133 18.423 2.71 18.181 2.226 17.697C1.742 17.2131 1.5 16.6218 1.5 15.923V10.923C1.5 10.4371 1.67017 10.0241 2.0105 9.68373C2.351 9.34323 2.76417 9.17298 3.25 9.17298C3.73583 9.17298 4.149 9.34323 4.4895 9.68373C4.82983 10.0241 5 10.4371 5 10.923V14.673H19V10.923C19 10.4371 19.1702 10.0241 19.5105 9.68373C19.851 9.34323 20.2642 9.17298 20.75 9.17298C21.2358 9.17298 21.649 9.34323 21.9895 9.68373C22.3298 10.0241 22.5 10.4371 22.5 10.923V15.923C22.5 16.6218 22.258 17.2131 21.774 17.697C21.29 18.181 20.6987 18.423 20 18.423H19.7307V19.423C19.7307 19.6295 19.6606 19.8061 19.5203 19.9527C19.3798 20.0996 19.2063 20.173 19 20.173C18.7872 20.173 18.609 20.1012 18.4655 19.9577C18.3218 19.8141 18.25 19.6358 18.25 19.423V18.423H5.76925V19.423C5.76925 19.6358 5.69742 19.8141 5.55375 19.9577C5.41025 20.1012 5.23208 20.173 5.01925 20.173ZM6.5 13.173V10.923C6.5 10.1538 6.26733 9.46606 5.802 8.85973C5.3365 8.25323 4.73583 7.85773 4 7.67323V6.61548C4 5.91665 4.242 5.32531 4.726 4.84148C5.21 4.35748 5.80133 4.11548 6.5 4.11548H17.5C18.1987 4.11548 18.79 4.35748 19.274 4.84148C19.758 5.32531 20 5.91665 20 6.61548V7.67323C19.2538 7.82306 18.6507 8.20473 18.1905 8.81823C17.7302 9.43173 17.5 10.1333 17.5 10.923V13.173H6.5Z" fill="#1D2633" style="fill:#1D2633;fill:color(display-p3 0.1137 0.1490 0.2000);fill-opacity:1;"/>
</svg>