<svg xmlns="http://www.w3.org/2000/svg" width="22" height="20" viewBox="0 0 22 20" fill="none">
  <path d="M10.7883 17.9712C10.8869 17.9712 10.9873 17.9481 11.0893 17.902C11.1911 17.8558 11.2715 17.8032 11.3305 17.7442L19.3285 9.74623C19.5542 9.52056 19.7241 9.27948 19.8383 9.02298C19.9523 8.76665 20.0093 8.49748 20.0093 8.21548C20.0093 7.92315 19.9523 7.64173 19.8383 7.37123C19.7241 7.10056 19.5542 6.85756 19.3285 6.64223L15.3285 2.64223C15.1132 2.41656 14.8799 2.25148 14.6285 2.14698C14.3774 2.04265 14.1056 1.99048 13.8133 1.99048C13.5313 1.99048 13.2604 2.04265 13.0008 2.14698C12.7411 2.25148 12.5017 2.41656 12.2825 2.64223L11.7093 3.21548L13.5593 5.08073C13.7836 5.29489 13.9494 5.53914 14.0565 5.81348C14.1635 6.08781 14.217 6.3724 14.217 6.66723C14.217 7.27756 14.0132 7.78656 13.6055 8.19423C13.1979 8.6019 12.6889 8.80573 12.0785 8.80573C11.7837 8.80573 11.4981 8.75698 11.2218 8.65948C10.9456 8.56215 10.7004 8.4064 10.4863 8.19223L8.81327 6.53473C8.7556 6.4769 8.68185 6.44798 8.59202 6.44798C8.50235 6.44798 8.42868 6.4769 8.37102 6.53473L4.24602 10.6595C4.17035 10.7351 4.1136 10.8198 4.07577 10.9135C4.03793 11.007 4.01902 11.1031 4.01902 11.202C4.01902 11.3865 4.08185 11.5441 4.20752 11.675C4.33318 11.8058 4.48827 11.8712 4.67277 11.8712C4.7716 11.8712 4.87193 11.8481 4.97377 11.802C5.07577 11.7558 5.15627 11.7032 5.21527 11.6442L7.97277 8.88648C8.11127 8.74798 8.28277 8.67456 8.48727 8.66623C8.69177 8.6579 8.8716 8.73131 9.02677 8.88648C9.1716 9.03131 9.24402 9.20698 9.24402 9.41348C9.24402 9.61981 9.1716 9.79539 9.02677 9.94023L6.28427 12.698C6.20877 12.7736 6.1521 12.8583 6.11427 12.952C6.07643 13.0455 6.05752 13.1416 6.05752 13.2405C6.05752 13.4186 6.12193 13.5721 6.25077 13.701C6.3796 13.8298 6.5331 13.8942 6.71127 13.8942C6.8101 13.8942 6.91043 13.8711 7.01227 13.825C7.11427 13.7788 7.19468 13.7262 7.25352 13.6672L10.1268 10.8095C10.2653 10.6711 10.4367 10.5978 10.641 10.5895C10.8455 10.5811 11.0254 10.6545 11.1805 10.8095C11.3254 10.9545 11.3978 11.1301 11.3978 11.3365C11.3978 11.5428 11.3254 11.7185 11.1805 11.8635L8.32277 14.7365C8.2536 14.7955 8.19852 14.8759 8.15752 14.9777C8.11652 15.0797 8.09602 15.1801 8.09602 15.2787C8.09602 15.4571 8.16043 15.6106 8.28927 15.7395C8.4181 15.8683 8.5716 15.9327 8.74977 15.9327C8.84844 15.9327 8.9446 15.9138 9.03827 15.876C9.13177 15.8381 9.21635 15.7814 9.29202 15.7057L12.1653 12.848C12.3036 12.7095 12.475 12.6361 12.6795 12.6277C12.884 12.6194 13.0639 12.6928 13.219 12.848C13.3639 12.9928 13.4363 13.1685 13.4363 13.375C13.4363 13.5813 13.3639 13.757 13.219 13.902L10.346 16.775C10.2704 16.8506 10.2136 16.9385 10.1758 17.0385C10.1379 17.1385 10.119 17.2346 10.119 17.327C10.119 17.5115 10.1876 17.665 10.3248 17.7875C10.4619 17.91 10.6164 17.9712 10.7883 17.9712ZM10.7728 19.471C10.2074 19.471 9.71452 19.2749 9.29402 18.8827C8.87352 18.4904 8.65369 18.0019 8.63452 17.4172C8.06785 17.3787 7.59443 17.1775 7.21427 16.8135C6.8341 16.4493 6.62802 15.9711 6.59602 15.3787C6.00368 15.3404 5.52485 15.1334 5.15952 14.7577C4.79402 14.3821 4.59843 13.9096 4.57277 13.3402C3.97793 13.3019 3.48693 13.0862 3.09977 12.6932C2.7126 12.3002 2.51902 11.8031 2.51902 11.202C2.51902 10.9071 2.5751 10.6183 2.68727 10.3355C2.79943 10.0528 2.9626 9.80448 3.17677 9.59048L7.31127 5.45573C7.6561 5.11089 8.08044 4.93848 8.58427 4.93848C9.08827 4.93848 9.51268 5.11089 9.85752 5.45573L11.521 7.11923C11.5799 7.1884 11.657 7.24356 11.7525 7.28473C11.8482 7.32573 11.9518 7.34623 12.0633 7.34623C12.2453 7.34623 12.4023 7.28598 12.5343 7.16548C12.6664 7.04498 12.7325 6.88723 12.7325 6.69223C12.7325 6.58073 12.712 6.47723 12.671 6.38173C12.6299 6.28623 12.5747 6.20898 12.5055 6.14998L8.99777 2.64223C8.78244 2.41656 8.54752 2.25148 8.29302 2.14698C8.03852 2.04265 7.7651 1.99048 7.47277 1.99048C7.19077 1.99048 6.92318 2.04265 6.67002 2.14698C6.41668 2.25148 6.17727 2.41656 5.95177 2.64223L2.66702 5.94223C2.37602 6.23323 2.18052 6.58356 2.08052 6.99323C1.98052 7.40289 1.99077 7.80131 2.11127 8.18848C2.15493 8.39481 2.11743 8.58231 1.99877 8.75098C1.88027 8.91948 1.71777 9.0204 1.51127 9.05373C1.30493 9.08706 1.11585 9.04706 0.944017 8.93373C0.772184 8.82023 0.669601 8.66023 0.636267 8.45373C0.478601 7.81406 0.478017 7.17723 0.634517 6.54323C0.790851 5.90923 1.11193 5.34931 1.59777 4.86348L4.87277 1.58848C5.24727 1.22431 5.65468 0.950311 6.09502 0.766478C6.53535 0.582478 6.99785 0.490479 7.48252 0.490479C7.96702 0.490479 8.42785 0.582478 8.86502 0.766478C9.30235 0.950311 9.70302 1.22431 10.067 1.58848L10.6403 2.16148L11.2133 1.58848C11.5876 1.22431 11.9934 0.950311 12.4305 0.766478C12.8677 0.582478 13.3286 0.490479 13.8133 0.490479C14.2979 0.490479 14.7604 0.582478 15.2008 0.766478C15.6411 0.950311 16.0434 1.22431 16.4075 1.58848L20.3825 5.56348C20.7465 5.92764 21.0254 6.34206 21.219 6.80673C21.4125 7.2714 21.5093 7.74606 21.5093 8.23073C21.5093 8.71539 21.4125 9.17631 21.219 9.61348C21.0254 10.0506 20.7465 10.4512 20.3825 10.8152L12.3843 18.798C12.1638 19.0185 11.9154 19.1858 11.6393 19.3C11.3629 19.414 11.0741 19.471 10.7728 19.471Z" fill="#1D2633" style="fill:#1D2633;fill:color(display-p3 0.1137 0.1490 0.2000);fill-opacity:1;"/>
</svg>