<svg xmlns="http://www.w3.org/2000/svg" width="20" height="20" viewBox="0 0 20 20" fill="none">
  <path d="M4.42296 17.0834C4.00199 17.0834 3.64567 16.9376 3.354 16.6459C3.06234 16.3542 2.9165 15.9979 2.9165 15.577V4.42321C2.9165 4.00223 3.06234 3.64591 3.354 3.35425C3.64567 3.06258 4.00199 2.91675 4.42296 2.91675H9.05421C9.23157 2.91675 9.38012 2.97661 9.49984 3.09633C9.61942 3.21591 9.67921 3.36439 9.67921 3.54175C9.67921 3.71911 9.61942 3.86758 9.49984 3.98716C9.38012 4.10689 9.23157 4.16675 9.05421 4.16675H4.42296C4.3588 4.16675 4.30005 4.19348 4.24671 4.24696C4.19324 4.30029 4.1665 4.35904 4.1665 4.42321V15.577C4.1665 15.6411 4.19324 15.6999 4.24671 15.7532C4.30005 15.8067 4.3588 15.8334 4.42296 15.8334H15.5767C15.6409 15.8334 15.6996 15.8067 15.753 15.7532C15.8064 15.6999 15.8332 15.6411 15.8332 15.577V10.9457C15.8332 10.7683 15.893 10.6198 16.0128 10.5001C16.1323 10.3805 16.2808 10.3207 16.4582 10.3207C16.6355 10.3207 16.784 10.3805 16.9036 10.5001C17.0233 10.6198 17.0832 10.7683 17.0832 10.9457V15.577C17.0832 15.9979 16.9373 16.3542 16.6457 16.6459C16.354 16.9376 15.9977 17.0834 15.5767 17.0834H4.42296ZM15.8332 5.04487L8.53838 12.3399C8.42296 12.4552 8.27789 12.5142 8.10317 12.517C7.92859 12.5196 7.78088 12.4606 7.66005 12.3399C7.53935 12.219 7.479 12.0727 7.479 11.9007C7.479 11.7288 7.53935 11.5824 7.66005 11.4615L14.955 4.16675H12.2915C12.1141 4.16675 11.9657 4.10689 11.8461 3.98716C11.7264 3.86758 11.6665 3.71911 11.6665 3.54175C11.6665 3.36439 11.7264 3.21591 11.8461 3.09633C11.9657 2.97661 12.1141 2.91675 12.2915 2.91675H16.3298C16.5447 2.91675 16.7239 2.98862 16.8675 3.13237C17.0113 3.27598 17.0832 3.45522 17.0832 3.67008V7.70842C17.0832 7.88578 17.0233 8.03425 16.9036 8.15383C16.784 8.27355 16.6355 8.33342 16.4582 8.33342C16.2808 8.33342 16.1323 8.27355 16.0128 8.15383C15.893 8.03425 15.8332 7.88578 15.8332 7.70842V5.04487Z" fill="#1D2633" style="fill:#1D2633;fill:color(display-p3 0.1137 0.1490 0.2000);fill-opacity:1;"/>
</svg>