<svg xmlns="http://www.w3.org/2000/svg" width="24" height="24" viewBox="0 0 24 24" fill="none">
  <path d="M5.4 9.75005H2.652C2.70583 9.52955 2.78208 9.3183 2.88075 9.1163C2.97958 8.91447 3.10075 8.71672 3.24425 8.52305L7.104 3.37305C7.31667 3.08588 7.59967 2.89588 7.953 2.80305C8.30617 2.71005 8.64492 2.75138 8.96925 2.92705L9.67875 3.27705C9.94542 3.41555 10.149 3.60305 10.2895 3.83955C10.4298 4.07605 10.5 4.33788 10.5 4.62505V7.3693L12.975 6.7308C13.3532 6.62963 13.7147 6.67613 14.0595 6.8703C14.4045 7.06447 14.6411 7.34555 14.7693 7.71355L16.4327 12.7193L20.7693 17.0558C21.0513 17.3378 21.2435 17.6416 21.346 17.9673C21.4487 18.293 21.5 18.6372 21.5 19C21.5 19.559 21.3349 20.0514 21.0047 20.477C20.6746 20.9025 20.2525 21.1871 19.7385 21.3308H19.421L8.677 11.0578C8.21917 10.6335 7.71142 10.3094 7.15375 10.0855C6.59608 9.86188 6.0115 9.75005 5.4 9.75005ZM14.15 21.5C13.7142 21.5 13.2985 21.4212 12.903 21.2635C12.5075 21.1059 12.1437 20.8795 11.8115 20.5845L3.6865 13.2095C3.38917 12.9455 3.15167 12.644 2.974 12.3048C2.7965 11.9658 2.67567 11.6142 2.6115 11.25H5.4C5.81533 11.25 6.21825 11.3231 6.60875 11.4693C6.99908 11.6155 7.3455 11.8398 7.648 12.1423L17.4115 21.5H14.15Z" fill="#1D2633" style="fill:#1D2633;fill:color(display-p3 0.1137 0.1490 0.2000);fill-opacity:1;"/>
</svg>