<svg xmlns="http://www.w3.org/2000/svg" width="12" height="20" viewBox="0 0 12 20" fill="none">
  <path d="M9.3001 18.925L0.975098 10.625C0.891764 10.5417 0.829431 10.4457 0.788098 10.337C0.746098 10.229 0.725098 10.1167 0.725098 10C0.725098 9.88333 0.746098 9.77067 0.788098 9.662C0.829431 9.554 0.891764 9.45833 0.975098 9.375L9.3001 1.05C9.5001 0.85 9.73343 0.75 10.0001 0.75C10.2668 0.75 10.5084 0.858333 10.7251 1.075C10.9251 1.25833 11.0251 1.48733 11.0251 1.762C11.0251 2.03733 10.9251 2.275 10.7251 2.475L3.1751 10L10.7251 17.55C10.9084 17.7333 11.0001 17.9583 11.0001 18.225C11.0001 18.4917 10.9001 18.725 10.7001 18.925C10.5001 19.125 10.2668 19.225 10.0001 19.225C9.73343 19.225 9.5001 19.125 9.3001 18.925Z" fill="#1D2633" fill-opacity="0.6" style="fill:#1D2633;fill:color(display-p3 0.1137 0.1490 0.2000);fill-opacity:0.6;"/>
</svg>