<svg xmlns="http://www.w3.org/2000/svg" width="21" height="20" viewBox="0 0 21 20" fill="none">
  <path d="M8.45838 12.9296L15.6571 5.73085C15.781 5.60682 15.926 5.54349 16.0921 5.54085C16.2582 5.53821 16.4059 5.60154 16.5353 5.73085C16.6646 5.86016 16.7292 6.00863 16.7292 6.17627C16.7292 6.34405 16.6646 6.49259 16.5353 6.62189L8.98567 14.1844C8.83498 14.3349 8.65921 14.4102 8.45838 14.4102C8.25755 14.4102 8.08178 14.3349 7.93109 14.1844L4.45192 10.7052C4.32803 10.5812 4.26692 10.434 4.26859 10.2636C4.27012 10.0933 4.33553 9.94349 4.46484 9.81418C4.59414 9.68488 4.74262 9.62022 4.91025 9.62022C5.07803 9.62022 5.22657 9.68488 5.35588 9.81418L8.45838 12.9296Z" fill="#16B874" style="fill:#16B874;fill:color(display-p3 0.0863 0.7216 0.4549);fill-opacity:1;"/>
</svg>