<svg xmlns="http://www.w3.org/2000/svg" width="16" height="16" viewBox="0 0 16 16" fill="none">
  <path d="M2.87167 13C2.54023 13 2.2565 12.882 2.0205 12.646C1.7845 12.41 1.6665 12.1263 1.6665 11.7948V9.968C1.6665 9.85856 1.69795 9.76156 1.76084 9.677C1.82362 9.59233 1.90756 9.53461 2.01267 9.50383C2.305 9.36795 2.54261 9.16617 2.7255 8.8985C2.90839 8.63072 2.99984 8.33111 2.99984 7.99967C2.99984 7.66822 2.90839 7.36878 2.7255 7.10133C2.54261 6.83378 2.305 6.63206 2.01267 6.49617C1.90756 6.46539 1.82362 6.40767 1.76084 6.323C1.69795 6.23844 1.6665 6.14144 1.6665 6.032V4.20517C1.6665 3.87372 1.7845 3.59 2.0205 3.354C2.2565 3.118 2.54023 3 2.87167 3H13.128C13.4594 3 13.7432 3.118 13.9792 3.354C14.2152 3.59 14.3332 3.87372 14.3332 4.20517V6.032C14.3332 6.14144 14.3017 6.23844 14.2388 6.323C14.1761 6.40767 14.0921 6.46539 13.987 6.49617C13.6947 6.63206 13.4571 6.83383 13.2742 7.1015C13.0913 7.36928 12.9998 7.66889 12.9998 8.00033C12.9998 8.33178 13.0913 8.63122 13.2742 8.89867C13.4571 9.16622 13.6947 9.36795 13.987 9.50383C14.0921 9.53461 14.1761 9.59233 14.2388 9.677C14.3017 9.76156 14.3332 9.85856 14.3332 9.968V11.7948C14.3332 12.1263 14.2152 12.41 13.9792 12.646C13.7432 12.882 13.4594 13 13.128 13H2.87167ZM2.87167 12H13.128C13.1879 12 13.2371 11.9808 13.2755 11.9423C13.3139 11.9039 13.3332 11.8547 13.3332 11.7948V10.3C12.9221 10.0556 12.5971 9.73056 12.3582 9.325C12.1193 8.91944 11.9998 8.47778 11.9998 8C11.9998 7.52222 12.1193 7.08056 12.3582 6.675C12.5971 6.26944 12.9221 5.94444 13.3332 5.7V4.20517C13.3332 4.14528 13.3139 4.09611 13.2755 4.05767C13.2371 4.01922 13.1879 4 13.128 4H2.87167C2.81178 4 2.76262 4.01922 2.72417 4.05767C2.68573 4.09611 2.6665 4.14528 2.6665 4.20517V5.7C3.07761 5.94444 3.40261 6.26944 3.6415 6.675C3.88039 7.08056 3.99984 7.52222 3.99984 8C3.99984 8.47778 3.88039 8.91944 3.6415 9.325C3.40261 9.73056 3.07761 10.0556 2.6665 10.3V11.7948C2.6665 11.8547 2.68573 11.9039 2.72417 11.9423C2.76262 11.9808 2.81178 12 2.87167 12ZM8 11.1025C8.14178 11.1025 8.2605 11.0546 8.35617 10.9587C8.45195 10.8629 8.49984 10.7441 8.49984 10.6023C8.49984 10.4606 8.45189 10.3418 8.356 10.2462C8.26011 10.1504 8.14134 10.1025 7.99967 10.1025C7.85789 10.1025 7.73917 10.1504 7.6435 10.2463C7.54773 10.3422 7.49984 10.4611 7.49984 10.6028C7.49984 10.7445 7.54778 10.8632 7.64367 10.959C7.73956 11.0547 7.85834 11.1025 8 11.1025ZM8 8.5C8.14178 8.5 8.2605 8.45206 8.35617 8.35617C8.45195 8.26028 8.49984 8.1415 8.49984 7.99983C8.49984 7.85806 8.45189 7.73933 8.356 7.64367C8.26011 7.54789 8.14134 7.5 7.99967 7.5C7.85789 7.5 7.73917 7.54794 7.6435 7.64383C7.54773 7.73972 7.49984 7.8585 7.49984 8.00017C7.49984 8.14194 7.54778 8.26067 7.64367 8.35633C7.73956 8.45211 7.85834 8.5 8 8.5ZM8 5.8975C8.14178 5.8975 8.2605 5.84956 8.35617 5.75367C8.45195 5.65778 8.49984 5.53894 8.49984 5.39717C8.49984 5.2555 8.45189 5.13678 8.356 5.041C8.26011 4.94533 8.14134 4.8975 7.99967 4.8975C7.85789 4.8975 7.73917 4.94544 7.6435 5.04133C7.54773 5.13711 7.49984 5.25589 7.49984 5.39767C7.49984 5.53944 7.54778 5.65817 7.64367 5.75383C7.73956 5.84961 7.85834 5.8975 8 5.8975Z" fill="#231D33" style="fill:#231D33;fill:color(display-p3 0.1369 0.1120 0.2000);fill-opacity:1;"/>
</svg>