<svg xmlns="http://www.w3.org/2000/svg" width="16" height="16" viewBox="0 0 16 16" fill="none">
  <path d="M3.33325 12.6667H4.17425L10.9986 5.84237L10.1576 5.00137L3.33325 11.8257V12.6667ZM2.93592 13.6667C2.76514 13.6667 2.62203 13.6089 2.50659 13.4934C2.39103 13.3779 2.33325 13.2348 2.33325 13.064V11.909C2.33325 11.7465 2.36447 11.5915 2.42692 11.4442C2.48925 11.2969 2.57514 11.1685 2.68459 11.059L11.1269 2.62054C11.2277 2.52898 11.339 2.45826 11.4608 2.40837C11.5826 2.35837 11.7104 2.33337 11.8441 2.33337C11.9778 2.33337 12.1072 2.3571 12.2324 2.40454C12.3578 2.45199 12.4687 2.52743 12.5653 2.63087L13.3794 3.45521C13.4829 3.55176 13.5566 3.66287 13.6006 3.78854C13.6446 3.91421 13.6666 4.03987 13.6666 4.16554C13.6666 4.29965 13.6437 4.4276 13.5979 4.54937C13.5521 4.67126 13.4793 4.7826 13.3794 4.88337L4.94092 13.3154C4.83147 13.4248 4.70309 13.5107 4.55575 13.573C4.40842 13.6355 4.25347 13.6667 4.09092 13.6667H2.93592ZM10.5708 5.42921L10.1576 5.00137L10.9986 5.84237L10.5708 5.42921Z" fill="#1D2633" style="fill:#1D2633;fill:color(display-p3 0.1137 0.1490 0.2000);fill-opacity:1;"/>
</svg>