<svg xmlns="http://www.w3.org/2000/svg" width="21" height="20" viewBox="0 0 21 20" fill="none">
  <path d="M9.87492 10.6249H5.70825C5.53117 10.6249 5.38277 10.565 5.26304 10.4451C5.14318 10.3253 5.08325 10.1768 5.08325 9.99971C5.08325 9.82249 5.14318 9.67409 5.26304 9.5545C5.38277 9.43478 5.53117 9.37492 5.70825 9.37492H9.87492V5.20825C9.87492 5.03117 9.93485 4.88277 10.0547 4.76304C10.1746 4.64318 10.323 4.58325 10.5001 4.58325C10.6773 4.58325 10.8258 4.64318 10.9453 4.76304C11.0651 4.88277 11.1249 5.03117 11.1249 5.20825V9.37492H15.2916C15.4687 9.37492 15.6171 9.43485 15.7368 9.55471C15.8567 9.67457 15.9166 9.82304 15.9166 10.0001C15.9166 10.1773 15.8567 10.3258 15.7368 10.4453C15.6171 10.5651 15.4687 10.6249 15.2916 10.6249H11.1249V14.7916C11.1249 14.9687 11.065 15.1171 10.9451 15.2368C10.8253 15.3567 10.6768 15.4166 10.4997 15.4166C10.3225 15.4166 10.1741 15.3567 10.0545 15.2368C9.93478 15.1171 9.87492 14.9687 9.87492 14.7916V10.6249Z" fill="#1D2633" style="fill:#1D2633;fill:color(display-p3 0.1137 0.1490 0.2000);fill-opacity:1;"/>
</svg>